<svg xmlns="http://www.w3.org/2000/svg" viewBox="0 0 200 48" fill="none" aria-label="Quiver">
  <defs>
    <linearGradient id="quiver-grad-l" x1="0" y1="0" x2="48" y2="48" gradientUnits="userSpaceOnUse">
      <stop offset="0%" stop-color="#7C3AED"/>
      <stop offset="100%" stop-color="#4F46E5"/>
    </linearGradient>
  </defs>
  <g>
    <path d="M 24 1.5 C 8 1.5 1.5 8 1.5 24 C 1.5 40 8 46.5 24 46.5 C 40 46.5 46.5 40 46.5 24 C 46.5 8 40 1.5 24 1.5 Z" fill="url(#quiver-grad-l)"/>
    <path d="M 24 6 L 39 15 L 39 33 L 46 43 L 32 41 L 24 42 L 9 33 L 9 15 Z M 24 16 L 31 20 L 31 28 L 24 32 L 17 28 L 17 20 Z" fill="white" fill-rule="evenodd"/>
  </g>
  <text x="60" y="33" font-family="Sora, system-ui, sans-serif" font-size="26" font-weight="700" fill="#0F172A" letter-spacing="-0.5">Quiver</text>
</svg>
