<svg xmlns="http://www.w3.org/2000/svg" viewBox="0 0 48 48" fill="none" aria-label="Quiver">
  <defs>
    <linearGradient id="quiver-grad" x1="0" y1="0" x2="48" y2="48" gradientUnits="userSpaceOnUse">
      <stop offset="0%" stop-color="#7C3AED"/>
      <stop offset="100%" stop-color="#4F46E5"/>
    </linearGradient>
  </defs>
  <path d="M 24 1.5 C 8 1.5 1.5 8 1.5 24 C 1.5 40 8 46.5 24 46.5 C 40 46.5 46.5 40 46.5 24 C 46.5 8 40 1.5 24 1.5 Z" fill="url(#quiver-grad)"/>
  <path d="M 24 5 L 40 14 L 40 32 L 24 41 L 8 32 L 8 14 Z" stroke="white" stroke-width="2.2" fill="none" stroke-linejoin="round"/>
  <path d="M 24 10 L 33 15 L 33 26 L 43 37 L 32 35 L 24 31 L 15 26 L 15 15 Z M 24 15 L 29 18 L 29 23 L 24 26 L 19 23 L 19 18 Z" fill="white" fill-rule="evenodd"/>
</svg>
