<svg xmlns="http://www.w3.org/2000/svg" fill="none" viewBox="0 0 1905 2048"><path fill="#3A1F8E" d="M0 1024v1024h1905V0H0zm929.1-905.7c-1 2.5-.9 2.6 1.4 1.5q2.5-1.2 4.7-.1c1.9.9 2.8.6 5-1.5 2.4-2.2 3.1-2.4 5.3-1.4q2.6 1.2 4.5.2c1.6-.9 2.3-.4 4.4 3.2 1.4 2.4 2.6 3.9 2.6 3.4s1.2.2 2.8 1.6a15 15 0 0 0 4.9 3.2q5.3 1.7 3.2 5.7l-1.2 2.3 2.8-1.8c2.6-1.7 2.9-1.7 4-.2q1.2 1.4 1.6 1.2c.2-.3 2.3-.7 4.5-1 3.9-.4 4.3-.2 6 2.9q1.9 3.3 2.5 2.3.8-1.1 2 1.5c1.3 2.9 2.1 3.2 4.7 1.8 2.1-1.1 16.9 9 16.4 11.1-.7 2.7-.7 3.2.3 3.3.6 0 3.2 1.1 5.8 2.4 3.4 1.6 5.8 2.2 8.1 1.8 3.2-.5 3.4-.3 5.7 4.5 2.2 4.7 2.5 5 5.6 4.5 2.6-.5 3.8 0 6.3 2.3 2.6 2.4 3.5 2.8 5.6 2 3.3-1.3 3.4-1.3 3.4.5 0 .9.7 3 1.6 4.7 1.5 2.8 1.5 3.3.1 4.3-1.2.9-.7 1.4 2.8 2.9 4.1 1.6 4.5 1.6 6.9.1 3.7-2.4 9.1-1.3 11 2.3 2.7 5.1 16.6 14.5 16.6 11.1 0-2 2.8-.7 3.4 1.6.4 1.4 1 2.4 1.5 2.1s1.6 1.3 2.7 3.5c1.7 3.9 1.9 4.1 5.5 3.5 2.1-.3 4.1-.2 4.4.4.3.5 1.8 1 3.3 1 5.3 0 6.7 1 8.9 6.3q3 7.7 7 4.4c1.7-1.2 3.3 0 3.3 2.5 0 1.9.1 2 2.5.4 3.1-2.1 3.4-2 2.8.4-.4 1.6 0 1.9 2.2 1.7s2.9.5 4.9 5c2.1 5 2.3 5.2 4.3 3.8 1.9-1.4 2.2-1.3 3.3 1.6q1.3 3.1 2.3 2c2.2-2.2 7.4-1.2 12.3 2.4l8.7 6.1c3.7 2.4 3.8 2.6 2.3 4.9-1.6 2.4-1.6 2.4 2.1 2.3 2.1 0 4.6-.5 5.6-1 1.3-.7 1.9-.4 2.6 1.4 2.3 5.8 11.6 11.8 18.3 11.8 2.4 0 3.2.7 5 4.5 2.1 4.3 9.7 9.5 13.7 9.5.6 0 2.7 1.5 4.7 3.2 4 3.5 10.1 6.2 10.6 4.6.6-1.8 14.9 4.5 14.4 6.4q-.2 1.6.4 1.8c.5 0 1.4 1.5 2.1 3.4 1.2 3.3 1.4 3.4 6.1 3.1 2.6-.2 4.8 0 4.8.5s1.3 2.2 3 4 2.7 3.6 2.4 4.1q-.4.8.9.3t2.2.5c1.2 2.1 7.7 4.1 10.9 3.6 3-.6 3.2-.4 5.1 4.5 1.8 4.7 2.2 5 4.6 4.5 2.2-.5 2.9-.2 3.4 1.4s1.2 1.9 3.4 1.5q2.9-.6 3.4 1 .7 1.8 3 1.1c2.1-.6 2.7 0 4.6 4.4 2.3 5.5 3.1 6 5.5 3.6 1.4-1.4 1.9-1.2 5.6 2.5 3.9 3.9 4.1 4 6.4 2.4 2.4-1.5 2.5-1.5 4.5 3.2a26 26 0 0 1 2.1 5.6q.2.9 2.5.4 2.5-.6 2.5.6t1.6-.4c3.1-3.1 17.9 7.6 16.7 12.1-.6 2.3-.4 2.4 2.5 1.8q3.1-.5 3.2.4t1 .4c.6-.3 2.4.3 4 1.5 1.8 1.3 3.8 1.9 4.9 1.5q2-.6 2.5 1.3c.6 1.9 9.5 7.2 12.1 7.2.7 0 1.6 1.1 1.9 2.4.7 2.8 8.2 9.2 12 10.2q2.7.6 2.2 2c-.6 1.6 2.9 2 3.9.4 1.2-1.9 3.4-1 5.5 2.5 1.2 1.9 3 3.5 4 3.5s2.1.7 2.4 1.5q.4 1.8 2.5.5c2.6-1.4 3.1-1.3 3.1.5s8.6 10.2 11.5 11.1a8 8 0 0 1 3.3 2.5c.7 1.1 2.4 1.9 3.8 1.9q2.2 0 1.9 1-.5.8.9.4 1.5-.6 3.1 2.5 1.5 3 3.5 3.1t5 4.7c2.4 3.8 2.9 4.2 2.4 2-.3-1.5-.2-2.8.2-2.8 7.8-1.2 8.9-.8 10.8 3.7 1 2.4 1.4 4.8 1.1 5.5q-.9 1.2 2.3.4c2.5-.5 3.3-.2 4.2 1.4 1.3 2.4 3 2.8 3 .6 0-1.9.3-1.9 4.1.4 1.7 1.1 3.7 1.7 4.3 1.5s2.1 1.5 3.4 3.8c2 3.8 2.1 4.4.7 5.4q-2.8 2.2-.1 2.4 1.3-.1 1.9-1.4.5-1.5 4.8-1.1c4 .3 4.5.6 6.3 4.6l2.3 4.8c.2.2 1.4-.1 2.7-.8 2-1.1 2.8-1 6.4 1.3 2.3 1.4 4.6 2.6 5.1 2.6s1.4 1.3 2.1 3q1.3 3 3.2 3c1.1 0 2.2.8 2.5 1.9.6 2.5 5.3 3.4 7.4 1.5 1.3-1.2 1.8-1.2 2.7-.1.6.7 4 3.3 7.6 5.7 5.3 3.6 6.3 4.7 5.5 6.1-1.4 2.7-1.2 2.8 4 2.4l4.8-.4 2.3 5c1.8 3.7 2.8 4.8 3.9 4.3 3.7-1.5 7.6-.9 8 1.1.2 1.1 1.2 3.1 2.3 4.5 1.9 2.4 1.9 2.4-.2 4s-2.1 1.6 1.7 3.4l3.8 1.8-1.9-2.1c-2.6-2.8-.7-5.4 2.1-2.9 1 .9 2.7 1.8 3.8 2 1.5.3 1.9 1 1.7 3.2l-.3 2.8 3.4-2.6c1.9-1.4 3.8-2.6 4.3-2.6 1.2 0 4.7 8.7 4 9.9q-.5 1 2.1.5c9.4-1.4 8.7-1.6 10.5 2.4 1.7 3.5 8.3 9.2 10.7 9.2.6 0 2 .9 3.2 2.1 1.5 1.5 2.8 1.9 4.8 1.4 2.3-.5 2.9-.1 3.9 2 1.5 3.2 1.5 5.5.2 5.5q-.9 0-1 .9c0 2 9.1 2.5 12.2.6 2.8-1.6 3-1.6 4.2.1.7.9 1.8 1.4 2.5 1 1.6-1 4.1 1.2 4.1 3.5 0 1 .9 2.1 2 2.4 2 .6 2 1.6 2.1 51.3.2 104.5-.2 206.6-1 241.2a11880 11880 0 0 1 .9 162.4c0 123.9 0 124.9-2.1 132.4-2 7-2 10.6-.2 16.6q.7 2-1.1 1.3l-3.2-1.4c-1-.4 0 1.8 2.5 5.6l4.2 6.2v119.2l-.1 120.4c0 2.2-1.7 1.5-11.2-5-7.6-5.1-9.2-6.6-9-8.4.3-2.1 0-2.2-4.1-1.9s-4.5.1-6.3-3.2q-7.5-14.1-14.3-10.2c-1.5.8-10.1-10.2-10.1-12.9 0-.6-2.1-.9-4.9-.7l-4.9.4-3.5-5.2c-1.9-2.8-4-6.1-4.6-7.4q-1.2-2-2.2-1.7-.8.5-.9-.3c0-.5-2.5-2-5.5-3.2-5.6-2.3-9.9-6.6-9-9.2.2-.7-1.4-2.4-3.9-4.1-5.4-3.4-6.1-3.4-4-.1 1.5 2.2 1.5 2.7.3 3.5-2.3 1.4-2.5 1.2-7.3-6.3s-7.9-9.2-11.5-6.4q-1.5 1.3-2.5-.8a129 129 0 0 0-13.2-18c-9.4 1.6-9.4 1.6-9.4 0 0-6-7-11.5-10.7-8.5q-1.2 1-1.7.8a106 106 0 0 1-12.6-18.3q.2-3-3.7-.1-2.2 1.5-2.8.4-.8-.9-2-.6t-3.4-4.1c-1.9-4-7.1-8.6-7.1-6.2q-.2.7-2 1.3c-2 .5-11.5-10-14.6-16.2q-2.2-4.2-8.5-1.7c-1.3.6-2.8-1-6.4-6.7l-4.7-7.5-4.5.3c-4.3.3-4.4.2-8.3-5.6a32 32 0 0 1-4-6.9c0-1.3-4.8-3.2-6.1-2.4-.5.3-5-2.4-9.9-6.1l-9-6.7v-6.4c0-5.7.2-6.4 2-6.4 2.4 0 2.4.6.9-22.3a90 90 0 0 0-2-17.5 29 29 0 0 1-.9-9.7c0-8.3.2-9.6 1.9-10.5 4.8-2.5 4.7-17-.1-18.6q-2-.6-1.2-2.2c.5-1 .7-3.3.6-5.2l-.8-18.3c-.3-8.1-.3-14.7.1-14.7.3 0 1.5.5 2.6 1 2.5 1.4 2.5.5-.6-7.6-2.8-7.4-2.7-.4-2.5-130.2 0-53.5 0-54.2 2-54.2q1.8-.1 2-1.5a39 39 0 0 0-3.2-12.6c-.7-.5-.9-44.1-.4-106.9.2-28.1-.8-68.8-1.8-71.4-2.3-6.3-5.9-10.7-8.3-10.1q-2.1.4-2.3-.5t-2.3-1c-1.2 0-3.2-.7-4.4-1.5a8 8 0 0 0-4.4-1.3c-1.7.2-2.8-.8-4.8-4-3.2-5.3-10.4-10.7-12.9-9.7-5.2 2.2-6.8 1.6-9.1-3.4-2.2-4.6-2.4-4.8-6.7-4.8-4.8 0-11.5-4.3-16-10.5-2.1-2.8-2.9-3.2-6.7-3s-4.4 0-6.5-3.2q-2.3-3.5-1.7-5.5c.9-2.9-2.3-4.1-4.1-1.6-1.3 1.7-1.5 1.7-5.8-.2-5.2-2.2-11.1-7.3-12.1-10.2-.5-1.7-1.5-2.1-5-2.1q-6.7 0-9.1-7.2c-.5-1.8-1.2-2-5.3-1.5l-4.6.6-1.9-4.6c-1.6-3.8-1.7-4.6-.5-5.4q1.7-1-.6-1c-3.7-.1-5.4-.7-8.4-2.8q-2.8-2-3.6-1.1c-1.2 2-4.5 1-5.5-1.6-.9-2.2-1.4-2.5-4-1.9-3.5.8-7-1.1-9.7-5.1-1.6-2.5-1.6-2.7.2-4 1.7-1.3 1.6-1.4-1.3-1.4q-3.2 0-3.2-1.5c0-1.4-.4-1.4-3.2.1-3.5 1.8-5.2.7-6.5-4.4-.6-2.4-3.1-3-3.9-.8-.6 1.6-10.4-2.6-10.4-4.4q-.1-1-1.2-.9c-2.9.3-3.9-.3-5.8-4-1.2-2.4-1.7-4.7-1.3-5.8.6-1.7.6-1.7-1-.2-.9 1-3.2 1.7-5 1.7-3 0-3.6-.5-5.5-4.4-1.2-2.4-2.6-4.4-3-4.4-.5 0-2.6-1.6-4.7-3.6-2.1-1.9-4.4-3.3-5.1-3q-1.3.4-1.4-.5c0-.5-1.3 0-3 1.2-1.6 1.3-3.1 2.1-3.3 1.8-1-1.5-3.7-8.2-3.7-9.2 0-1.5-8.6-4.1-10.2-3.1-.5.4-2.8.1-4.9-.6-4.4-1.5-9.3-9.5-6.7-11.1q1-.7-2.5-1.4c-2-.4-4.2-1.3-4.8-2.1-1-1.2-1.4-1.2-2.4.3-1.1 1.5-1.5 1.3-3.4-2.4-1.6-3.3-2.5-4-4.1-3.6q-2.2.7-2.7-1.6-.6-1.8-1.5-1.5-1 .5-.3-1.5.8-2.2-1-2.1-1.4 0-1 1c.7 1.1.5 1.2-5.2 1.4-3.9.2-4.3 0-5.9-3.6-2.9-6.4-13.4-12.8-17.1-10.5-2.2 1.4-5.1 1.6-4.9.4 0-.7-.6-2.9-1.3-4.9-1.4-3.6-1.5-3.7-6.1-3.2l-4.6.4-2.2-4.6c-2.1-4.2-2.1-4.7-.7-5.8s1.5-1.4-.3-3.6-2.3-2.4-5.3-1.3q-3.3 1.2-4.3.3t-2-.1c-3.4 2.6-6.4 2.1-7.6-1.2-1.9-5.8-5.6-8.8-13.8-11.2q-4.6-1.5-6.3-.4c-1.5.7-2.1.4-3.4-1.6l-3-4.9c-1.8-3-10-8.8-10.9-7.8-.4.3-2.3.7-4.3.8-3.3.1-3.7-.2-5.7-4.7q-2.1-4.9-3.5-4.4c-4 1.5-20.1-8.6-20.1-12.6q-.2-.8-2-.9-2 0-2-2c0-1.7-.3-1.9-1.9-1-3.4 1.7-5.1 1.1-6.8-2.5-1-2.1-2.3-3.5-3.2-3.3-.9.1-2.2-.1-2.9-.6s-3-.9-5.1-1a10 10 0 0 1-5.5-1.9c-2.6-2.5-6.1-3.1-11.4-1.7-10.2 2.6-15.3 3-16.9 1.5-.8-.8-2-1.5-2.6-1.5q-1.2 0 .1.9c1.1.6.9 1.7-.9 5.4-2.4 5-3.8 5.7-6.4 3.1-2.3-2.4-4-1.2-7.4 5.3-2.9 5.4-3.8 6.2-10.8 9.7-4.1 2-7.3 3.1-7.1 2.4.8-2.1 1.8-6.4 1.2-5.1q-.6 1.2-2.2 1.3c-1.7 0-5.2 6.8-5.2 10q0 1.6-1.2.2c-1.7-1.7-4.5-1.5-5.2.4-.3.8-1.4 1.4-2.3 1.2-1-.3-3 .1-4.5.9-1.5.7-3.3 1.1-4 .8q-1.3-.3-3.5 4.5c-2 4.7-4.4 6.3-5.8 4q-.6-.8-3.8.4l-6.2 2.7c-1.6.7-3.4 1.3-4 1.3-.5.1-1.9 1.5-3 3.3q-2 3.3-3.8 2.7-1.9-.6-2.4 1.5-.5 2-2.8 2.1c-2.1 0-3.8 2.7-5.9 9.2a53 53 0 0 1-17.3 9.5c-.2-.3.3-1.9 1.1-3.6 2.1-4 2.1-4.1-1.9-4.1q-3.5 0-3.5 1.5.2 1.3 1.5 1.5c1.2 0 1.1.8-.7 4.5q-3.2 6.7-6.5 3.4-2.9-3-7 5.7c-2.6 5.2-3.4 5.9-10.5 9.5a34 34 0 0 1-7.8 3.4c0-.3.9-2.4 2-4.5l2-4-7.4 3.7c-5.5 2.7-7.8 4.5-8.7 6.5a6 6 0 0 1-4.3 3.7c-3.8 1-4.1.8-2.6-1.8.9-1.8.8-2.1-.9-2.1-1.1 0-2.3.4-2.6 1q-.4.9.5 1c1.4 0 .2 4.2-1.4 5.2-.7.4-2.3 3-3.6 5.8-2.2 4.8-3.1 5.5-10.3 9.1l-7.8 4 1.6-3c2-3.9 2-3.8-1.5-3.3q-3 .5-3 2.1c0 3.4-2.5 5.6-5.1 4.4-2.9-1.3-6.5 2.1-9.5 9l-2 4.5c-.1.2-1.4.5-3 .8a9 9 0 0 0-4.4 2.3 22 22 0 0 1-8.5 5.1c-.3 0 .4-1.8 1.5-4s1.7-4 1.2-4c-2 0-5 3.3-7.2 8-2.1 4.4-2.7 5-4.6 4.6q-2.3-.6-3.3 1.1c-.7 1.4-1.3 1.5-3.4.6-2.2-1-2.4-1-2 .8q.4 1.7-.5 1.9t-1.7 2.2l-.8 2.3-.4-2.2c-.8-4.3-3.1-3.4-5.7 2.3-1.8 3.9-3 5.4-4.5 5.4-1.1 0-2.3.4-2.6 1-1.6 2.6-4.4 1-4.8-2.8l-.3-3.7-.8 3.2q-.9 3.3-2.3 2.6c-1.2-.5-1.3.1-.8 3.1q.8 3.7-.4 3.6-1-.1-.5-1.1c.6-1-1.1-2.8-2.7-2.9-.3 0-1.3 1.6-2.2 3.6q-1.7 3.5-3.5 3.2-1.7-.5-3.5 3.1-1.5 3.1-1.3 1.8.5-1.5.2-1.7l-2-.6c-1.1-.4-2.3.9-4.3 5.3-2.6 5.4-3.3 6.1-9.6 9.1-7.8 3.8-9.3 3.8-7.3 0 2.6-5-2.5-.5-5.4 4.7q-2.4 4.3-3.8 4-1.4-.5-.7 1.6c.6 1.7.3 2-1.2 1.7q-1.6-.4-1.6-1.6c.2-.6-.6-1.6-1.6-2.1-1.6-.9-2.1-.4-3.6 2.9-1 2.2-2.6 4.2-3.6 4.5s-3 2-4.4 3.7q-2.7 3.1-5.6 3.2c-1.6.1-2.9.6-2.9 1.3q-.1 1.1-1.1 1.9-1.2.7-.4-1.5t-.9-2.1c-1.6 0-5.2 4.1-6.1 6.9-.5 1.7-7.5 2.5-9 .9-1.6-1.5-3.1.4-2.7 3.5.2 2.5-.2 3.5-1.9 4.5-1.9 1.2-2.1 1.2-1.6-.2q.5-1.6-1.2-2.6c-1.6-.8-2.2-.2-4.2 4.5-1.8 4.2-2.8 5.3-4.1 4.9-1-.3-2.8.1-4 .8s-4.7 1.5-7.7 1.8c-5.1.5-5.5.7-6.3 3.7-.9 3.6-6.3 7.5-9.4 6.7-1.5-.4-2.4.5-4.5 4.8-2.4 4.7-3.5 5.7-9.8 9-8.2 4.4-8.4 4.4-7.6 1.9q.5-1.9-1-2.5c-1.1-.4-2.2.7-3.8 4.2-1.2 2.6-2.2 4.9-2.4 5-.5 1.1-4.3-1.2-4.4-2.6q0-2.3-.6 0-.6 1.7-2.8 1.8c-1.3 0-2.9-.8-3.4-1.8-1-1.6-1-1.6-1.1 0q.1 1.6 1 1.8c1.5 0 1.2 2.5-.7 6.4-1.4 3-2.1 3.5-4.7 3.3l-3.1-.2-.3 300.4c-.2 238.7.1 300.6 1 301.2.7.5 2.2.6 3.3.3 2.5-.6 7.2 7.1 5.5 9.1q-1.4 1.4 2.5 1.7c1.9.2 3.5.1 3.5-.3q.2-.7 1.7-1.3c1.9-.8 5.4 2.7 7.3 7.4 1.4 3.4 4 4.7 5.2 2.5q2.3-4 5.8 3.4 3.6 8 8.6 4.4 3.3-2.5 3.4-.1c0 5.9 6.2 13 8.8 10.2 2.2-2.4 3.8-1.5 6.2 3.5l2.3 4.9 4.3-.4 4.4-.5 3.1 6.4 3.1 6.5 3.3-1.4c3.1-1.3 3.4-1.2 4 .5q.6 1.9 2.5 1.4t2 .7q0 1.4 1.8-.3c2.8-2.5 21.7 12.2 20.7 16-.6 2.6-.5 2.6 3.9 2 4.2-.6 4.7-.4 6.8 2.3 1.2 1.7 2.8 3 3.5 3q1.2.2 2.3 2.1 1.1 2.2 3.4 1.5c3.4-.8 7.3 7.3 4.8 9.8-1.6 1.6-1.5 1.6 1.8.3 6.8-2.8 9.7-2.9 10.3-.4 2.3 9.3 5.1 12 9.3 9 2.4-1.7 4.4-1.7 4.4.2 0 4.1 3.4 8.5 6.5 8.5 1.7 0 3.5-.4 4.1-1q1-.8 8.7 4.6c6.5 4.8 7.5 5.9 6.7 7.4-1.4 2.7-1.3 4.5.3 3.2.6-.5 3-.9 5.1-.8 3.6.1 4.2.5 6 4.3q2.1 4.3 3.8 3.7 1.5-.4 2.3.6.6 1 2.6 0c1.8-1 2.2-.5 4.5 4.5 1.4 3 3 5.3 3.5 5q.8-.4.9 1.4c0 2.7 1.6 2.7 2.3.1 1-3.8 4.6-2.4 7 2.7s4.8 6.1 8.2 3.3q1.6-1.4 3-.4c12.6 9 14.3 10.7 13.2 13.1q-1 2.2-2.4 1.9c-1.4-.6-1.5 0-.4 2.9.8 2 .8 2 1.5-.1.7-2.3 4.2-3.8 5.2-2.3.3.5 1.4.5 2.5-.2q2-1 2.3-.7l3.6 6.6c2.8 5.2 6 8 5.3 4.5q0-1 2.2-2.1c2.2-1 2.6-.8 4.6 3.4 2.7 5.3 6.9 8 9.2 5.7 1.2-1.3 2.4-.8 9 3.9 7.1 4.9 7.6 5.5 7.1 8.2q-.7 3 .6 2.1c2.4-1.5 8-1.1 8.5.6.7 2.2 6.1 6.3 10.6 8.2q3.5 1.3 5.3 5.5c1.5 3.2 2.2 3.9 3.5 3.3 2.7-1.3 8.1-1.3 8.1.1 0 .7.8 3.2 1.7 5.5q3 7 7.7 3.7 3.8-2.7 3.6.1c0 2.3 8.8 10.1 13.1 11.5q4 1.3 3.9 3.2 0 1.7 1 1.8.8-.1.4-1.4-.3-1.2 1.3-2 2.9-1.3 5.5 6.2 1.2 3.5 3 2.9c1-.3 2.1-.1 2.4.4s1.5.3 2.7-.6c2-1.4 2.2-1.3 4.3 3.8 2.1 4.7 2.9 5.4 5.9 4.7 3.6-.8 5.6.2 7.5 4 1.2 2.3 2.4 3.8 2.9 3.6.5-.3 1.7.4 2.7 1.5 2.6 2.9 8 4.9 11.3 4.3 2.4-.5 3.2-.2 4.2 1.7.7 1.3 1.7 2.9 2.3 3.5s1.8 2.1 2.6 3.4c1.8 2.6 5.2 4.7 4.8 2.9-.2-.6.4-1.6 1.3-2.1 2.7-1.8 15.5 8.1 15.1 11.7-.3 2.3 0 2.6 1.5 2 4.9-2.1 7.9-.6 10.4 5l1.9 4.2 4.7-1.4c2.7-.8 8.1-3 12.1-4.9 7.4-3.5 7.9-3.4 6.2 1-.7 2.1-.6 2.6.5 2.6 1.8 0 4.3-3.7 6-8.8 1.7-5 13.6-11.3 16.5-8.7 2.3 2.1 3 1.9 3-.8.1-5.2 5.5-7.9 8.6-4.2 2.1 2.5 5.4 1.8 5.4-1.1q0-1.5 1.8-1c1.4.5 2.4-.6 4.5-4.9 2.4-4.8 3.4-5.8 9.4-9 3.8-1.9 7.5-3.9 8.3-4.4l5-2.5c1.9-.9 5.3-2.8 7.5-4.1 4.9-3 5.8-3.1 5.1-.5l-1.2 4.1c-1.2 4.3 2.1 1.2 5.6-5.2 3.2-5.9 4.2-6.7 11.3-10.5a38 38 0 0 1 7.7-3.7l-1.1 2.5q-2 4.3 2 .9c1.3-1.1 2.9-1.7 3.7-1.4q1.3.4 1.4-.9c0-1.8 4.4-4.3 5.9-3.4 1.4.9 9.8-6.1 11.7-9.6q1.5-2.8 3.8-2.8 2.3-.1 4-2.5c1.6-2.5 7.4-6.1 8.3-5.2.2.3-.5 2.3-1.6 4.6a26 26 0 0 0-2.1 4.5c0 .3 3.7-1.7 8.3-4.4 8-4.9 12.7-6.2 12.7-3.8 0 .7 1.8 4.1 4 7.6 3.6 5.7 4.2 6.2 6.1 5.2 1.1-.7 2.3-.9 2.6-.6s1.4.1 2.4-.5c1.6-.8 2.1-.6 2.8 1.3.6 1.3 2.4 4.3 4 6.8s3.1 5.1 3.1 5.8q-.1 2 8.2-.4 1.7-.7 3.2 3c2.6 6.2 7.7 12.9 8.9 11.7q1-1 2.4 0 1.3 1.3 2.8-.1 1.5-1.1 1.9-.9a76 76 0 0 1 8.6 13.6c0 1.8 2.9 1.7 3.6-.2q.6-1.7 1.9-.5c.7.6 2 .8 2.8.4q1.6-.7 3.1 3c2.8 6.7 7.6 12.8 9.1 11.6q1.3-1.2 2 0 .6 1 2.5 0 3.9-2.1 4 .3c0 .7 1.6 3.6 3.5 6.4a32 32 0 0 1 3.5 6.2c0 .6 1.5.7 3.4.4 3.1-.5 3.6-.2 5 2.5q1.6 3.1 3.3 2.6c1.6-.4 6.3 5 6.3 7.3 0 2.1 5.4 3.3 7.2 1.6q1.7-1.4 2.2-1.2c2 2.5 8.6 13 8.6 13.8 0 1.6 1.6 1.3 3.4-.4q1.4-1.4 2.1-.5c.3.5 1.5 1 2.5 1 1.7 0 10 10.9 10 13.2 0 1.1 5.3.6 8.1-.6q1.7-.8 2.2 1.6a44 44 0 0 0 4.3 7.9c3.8 5.6 7.2 7 11.1 4.6 1-.7 8.2 7.5 12.7 14.5 3 4.6 0 6.5-4.1 2.6q-2.4-2.4-2.5-.7l-.2 2.4c-.5 3.8-4.3 10.4-5.6 9.9-5.3-2.3-6.8-1.8-9.5 3.6-2 4-3 5-4.3 4.5-2-.8-2.1-.8-4.8-.6q-2 0-4.4 5.1c-2.6 5.6-2.4 5.4-5.1 4q-2-1.2-1.9.1-.2 1-2 .6t-2 .4q-.1.7-1.3.3-1.3-.3-2.5 2.1c-1 2.2-1.5 2.4-3.2 1.5-1.9-1-2.3-.6-4.6 4.5-2.4 5.2-3 5.8-10.5 9.6-6.3 3.1-7.8 3.6-7 2.1q.9-1.8.4-2.6-2.2-2.4-5.3 4.4c-2.6 5.6-2.4 5.4-5.1 4q-2-1.1-1.9 0c0 .6-1 .8-2.2.5-2-.5-2.6.1-4.2 4-2.1 5.3-5.4 7.2-8.8 5.2q-2-1-2.5-.2c-2.9 7.5-6.1 11.1-12.3 14.2-7.7 3.8-8.3 3.9-7.5 1.4 1.3-4.3-2.4-3-4.7 1.7-2.3 4.6-2.3 4.7-6.8 4.4l-4.5-.3-2.2 5.2c-1.7 3.9-2.7 5-3.9 4.5-.9-.3-2.7.3-4.1 1.4-3.4 2.6-4.3 2.5-4.3-.6 0-2.8-.5-2.8-7.7.3-2.9 1.2-3.3 1.6-2.2 2.9s-.4 6.8-2.7 10.2c-.8 1.2-4.4-1.2-4-2.6q.8-1.8-1.9-1.7-2.3.1-2.5 1.1c0 .5-2 2-4.4 3.1-3.6 1.8-4.9 3.2-7 7.8-2.3 5.1-2.9 5.7-5 5.1q-2.4-.6-3 .9-.6 1.4-2.6 1.5-2-.1-4.1 4.6c-1.8 3.7-3.1 5-6.8 6.6-2.5 1.1-5.9 2.6-7.4 3.4-2.7 1.3-2.8 1.3-2.5-.8.6-4.5-2.7-3.1-5.2 2.1-1.3 2.8-2.7 4.8-3.1 4.5s-2.2.4-4 1.5-3.6 1.8-4.1 1.5-1.8 1.1-2.9 3.1c-2 3.4-2.2 3.5-4.4 2.1-3.6-2.4-8.1-.4-9.6 4.1-.9 3-1.3 3.3-2.1 1.9q-2.2-4.3-5.4 3.7-2.2 5.3-4 5.2c-5.5.1-8.5 1.7-10.4 5.6-1.6 3.1-3.5 4.6-9.1 7.5-8 4-8.7 3.9-6.5-.5 2.3-4.4 2.2-4.4-5.3-.6-6.4 3.2-7.1 3.9-9.5 9.1-2.1 4.6-2.9 5.5-4.3 4.9-2.9-1.2-4.8-.8-8.9 2-2.1 1.4-4.5 2.4-5.4 2.2q-1.6-.5-3.9 5c-2.5 5.7-3.5 6-10.9 3.8q-2.5-1-1.6.8c.7 1.9-3.5 9.9-4.8 9.1-.4-.3-2.4.7-4.3 2.2l-3.5 2.6v-2.6c0-3.2-1.4-3.2-6.5-.1-4.9 3-6.4 3.1-11.7.4-4.9-2.5-13.2-3.9-16.6-2.8q-1.5.2-3.5-4.8c-2.2-5.4-3.5-5.9-9-3.8-1.4.6-2.2-.4-4.3-4.8-1.5-3.4-3-5.4-3.7-5.1a19 19 0 0 1-6.9-2.5c-5.1-2.6-5.9-2.7-7.8-1.4s-2.1 1.2-2.6-.4c-2.6-8.1-5.7-11.6-8.1-9.2-1.4 1.4-7.4-1.1-10.1-4.3-1.3-1.5-2.9-2.8-3.6-2.8s-2-1.6-2.9-3.5c-1.4-2.9-2-3.4-3.5-2.6-3.4 1.8-7.2.1-9.4-4.2q-2.1-4.1-.9-4.5 1-.4.5-1.4t-1.4.3c-.7 1-1.2 1-2.6-.2q-1.7-1.5-2.1-.3c-1.1 3.4-17.3-7.2-17.3-11.3 0-1.5-2.6-1.7-3.5-.3q-.7 1-2.3.1c-.9-.4-2.2-.7-2.8-.4-1.1.4-5.1-7.5-4.6-9.1.2-.5-.7-.6-1.9-.3-3.9 1-16.4-5.6-19.5-10.3-1.5-2.2-3-4-3.4-4s-1.2-1.1-1.8-2.5-1.6-2.5-2.2-2.5q-1 0 .1 2.2c1 1.8.8 2.4-.7 3.5-2.6 1.9-2.9 1.7-4.9-2.6-2.1-4.7-6-8.7-6.9-7.2-1.6 2.5-15.7-6.5-17.1-10.9q-.5-1.8-3.8-1.6c-5 .3-8-1.1-13.2-6.4-4.2-4.3-5.1-4.8-8-4.3-1.9.3-3.5 0-3.9-.6s-1.6-1.1-2.7-1.1q-1.7-.2-1.9-1.5c0-3.2-4.1-9.7-5.7-9.1-.8.4-3.6-.5-6.1-1.9q-4.6-2.7-7.3-2c-2.2.5-2.9.2-3.4-1.5-1.1-3.3-6.7-9.3-7.5-8-1.5 2.4-8.9-1.1-13.6-6.4a34 34 0 0 1-4.4-5.8c0-1.4-3-.8-3.6.6-.9 2.3-5 0-7.4-4.1-1-1.8-2.6-3.3-3.5-3.3-1.3 0-1.4-.4-.4-2.2s.9-2-.7-1.4c-2.9 1.2-9 2-8.2 1.1 1.5-1.6-3.4-8.6-8.4-12-4.4-2.9-5.4-3.2-6.1-2q-.7 1.5-2.5.6c-.9-.4-2.2-.6-2.8-.4-.7.2-2.2-1.2-3.4-3.2-1.2-1.9-2.8-3.5-3.6-3.5q-1.3 0-1.4-.9c0-.5-1.6-1.2-3.6-1.6-2-.3-4.6-1.6-5.9-2.9-1.2-1.2-2.7-2-3.3-1.8s-2.6-1.7-4.3-4.2c-3.1-4.3-3.4-4.5-7.7-4.2l-4.5.3-2.1-4.9c-1.9-4.5-2.3-4.9-5.1-4.5-1.6.2-4.3 0-6-.6A42 42 0 0 1 557 1653q-.2-1-1.7-.7c-6.9 1.9-6.8 1.9-9.5-3.6-2.5-5.2-2.7-5.3-6.4-4.9-4.7.4-10.5-3.1-15.4-9.3-3-3.7-3.5-4-7.6-3.7l-4.4.4-2.3-5.1c-2-4.7-2.9-5.4-6.7-5.3q-.6 0-2.5.6c-2.6.8-7.2-7.3-5.2-9.3q1.3-1.1-1.2-1.1c-1.2 0-4.5-1-7.2-2.1-4.1-1.8-5.4-2-7.5-1-3.4 1.5-4.4 1.4-4.4-.4 0-.9-.9-3.3-2-5.4-2-3.9-3-4.2-8.5-2.6-1.6.5-2.3-.2-3.8-3.8-3.1-7.6-12.7-12.8-18.9-10.2-1.4.5-2.2-.3-4-4.2-1.2-2.6-2.3-5-2.5-5.1-.1-.2-1 .1-1.9.6-3.3 1.9-16-6.2-19-12-1.5-2.8-1.6-2.9-3.9-1.4q-5.5 3.6-8.9-5.2l-2-5-3.9 1.4q-5.7 2-5.7-.5c0-.5-.9-2.9-2.1-5.5-1.8-4.1-2.2-4.5-4-3.6q-1.7 1-1.4 2.1c1.1 1.7-1.4.9-3.2-1-1-1-2.8-2.1-4-2.5-2.7-.9-10.3-9-10.3-11.1 0-1.3-.9-1.5-5.2-1.1l-5.3.4-2.2-5c-1.9-4.2-2.6-4.8-4.3-4.3-3.1 1-9-1.3-9-3.5 0-1.6-.4-1.7-3.2-.9l-3.4.9-2.3-4.8c-2.9-6.1-15.3-16.1-17.7-14.2-1.1 1-1.2 1.6-.3 2.6q1.2 1.4.1 1.4-1-.2-1.7-2t-4.8-3.2c-4-1.1-13.7-9.6-13.7-12q-.2-.8-1.7-.4-8.4 2.4-8.3.4c0-.7-.8-3.1-1.7-5.3-1.6-3.9-1.8-4-6.3-4-4.1 0-5.2-.5-10.8-5.5-3.4-3-6.4-6.2-6.7-7.1q-.6-1.7-2.6-1.2c-2.5.7-9.5-3.9-10.4-6.7-.5-1.7-1.2-2-3.5-1.5-2.4.5-3.5 0-7.3-3.8q-4.6-4.5-5.9-3.6c-2.4 1.6-3.5.9-5.3-3-1.6-3.6-2.1-3.9-4.9-3.6-1.9.3-4-.2-5.3-1.3l-2.3-1.7-1-216c-.5-118.8-1-243.1-1-276.3 0-54-.2-60.2-1.6-60.2-3 0-1.3-5.5 1.8-5.8q2.6-.3 2.8-.8c0-.2-1.2-2.3-2.8-4.7-2.5-4-2.7-5-3-17.5l-.4-13.2 2.3.2c2.1.3 2.5-.4 4-6.7 3.1-12.4 2-24.4-2.7-29.6-1.6-1.8-1.6-2-.1-3.7 1.6-1.7 1.7-10.5 1.7-105.8 0-103.7 0-104-2.1-110.4l-2.2-6.3 2.2-6.8 2.2-6.8-2.1-4.2c-2.8-5.3-2.1-7.3 4.1-12.9 4.3-3.7 5.3-4.2 6.9-3.2 1.5.9 1.9.8 2.4-.5q.7-1.7 1.8-.5c1.3 1.3 5.8-4 5.8-6.8 0-1 3.4-3.4 9-6.3 7.6-3.9 8.9-4.4 7.9-2.6-1.1 2.2.4 4.4 2.2 3.3q.8-.2 1.5.7.7 1 2-2 1.3-3.3 3.1-2.9c1.3.2 2.4-1 4.1-4.7l2.7-5.3c.8-.8 4.5 2 4.5 3.3q0 4.7 5.6-5.7c3.9-7.2 6.8-9.8 13.2-11.9 4.1-1.3 4.9-.7 3.3 2.7-1.2 2.8-1.4 2.8 3.7.7q1.2-.6.5 1.3-.9 2 1.1 1.1l4.2-1.3q2.1-.6 1.8-1.5-.6-.8-1.4-.4c-.5.3-1.9.1-3-.5-1.9-1-1.9-1.1.2-5.5 1.2-2.5 2.8-4.5 3.5-4.5s2.4-.7 3.8-1.6c2.3-1.5 2.4-1.4 4.1 1.3l1.8 3 2.7.8c2.4.6 2.7.3 3.3-3.2.3-2.1 1.7-6.2 3.1-9.1 2.2-4.8 2.7-5.2 4.5-4.2s1.8 1.4.9 3.2c-1.1 2.1-1.1 2.1 2.7-.1l10.1-6q9-5.2 5.1-5.1c-3.4-.1-4.2-1.8-1.7-3.9q4.2-3.3 5.1-1.1c.2.6 1.7.8 3.6.4 3.3-.7 7.2-6 7.2-9.9q-.2-1.8 1.9-.5c3 1.5 3.8 1.3 5-1.8.7-1.6 2.7-3.6 4.7-4.5 4.3-2.1 4.8-2.1 4-.2q-.6 1.5 1.4 1.5t4.2-4.4c1.9-3.9 2.4-4.3 4.4-3.6q2.3.9 2.7-.3c.3-.9 1-.9 3.1.1 3.1 1.4 5.6.3 5.6-2.4q.2-1.3 2-1.4c2 0 6-6.3 6-9.4 0-1 3-3 7.4-5.1 8.8-4.2 8.8-4.2 8-1-.5 2.2-.3 2.5 2.1 2.5 1.4 0 2.4-.4 2.1-.9-.6-.9 3.1-10.1 4-10.1.3 0 1.5.5 2.6 1.1 1.8 1 2 .9 1.5-.5-.6-1.5-.4-1.5 1.7-.1 2.3 1.5 2.4 1.4 5-4.5 2.4-5.4 3.3-6.4 7.4-8.2l7.3-3.3c2.3-1.1 2.9-1 4.2.2 1.3 1.4 1.7 1.2 3.2-1.1 1-1.4 1.4-3.3 1.1-4.2q-1-1.7 2.2-1.2 2.9.1 2.6 2.5c0 2 .2 2 7.1-1.4 6.7-3.4 7.3-3.9 9.7-9.4l2.6-5.9 5.1.5c4.5.5 5.1.3 5.1-1.3 0-1.1 1.1-3.2 2.5-4.8l2.5-2.9-.2 2.5c-.5 4.5 2.8 3.6 4.8-1.4l1.9-4.4 3.4 1.4c4 1.7 3.6 1.9 8.1-6.8 2.8-5.3 3.6-6 9.8-8.9l7.6-3.6q.7-.3.1 1.6t.4 2.1c.5 0 1.8.3 2.8.6q2 .6.4-.4c-2.9-2.1 3.5-10 6.7-8.3 2.8 1.5 3 1.4 2.5-1.3-.5-2.3-.3-2.4 3.6-1.9q4 .6 4.1-.6c0-.6 1.1-1.1 2.4-1.1 1.8 0 2.8-1.1 4.7-5.3l2.4-5.2h5.2c4 0 5.6.4 6.7 2 1.5 1.9 1.5 1.8 1.6-2.3 0-3.9.2-4.2 1.9-3.2 1.6.8 2.2.4 4-2.5q2-3.4 4.1-3.5 1.9 0 1.5 1.1c-.4.5 2.8-.8 7.2-2.9 7.5-3.8 7.9-4.2 10.2-9.7 1.9-4.6 2.7-5.6 4.3-5.2q1.8.5 2.5-.9c.3-.8 1.6-1.4 2.9-1.4s2.4-.4 2.4-1c0-2.5 4.3-5.9 6.1-4.9 1.5.8 2.1.4 3.5-2.2q1.6-3 2.3-2.1.7 1.2 2.4-.8c3.2-3.8 4.6-2.6 2.2 2.1l-1.6 3 7.8-4c7.4-3.7 7.9-4.3 10.1-9.4 1.7-3.9 2.9-5.4 4-5.3.9.2 2.3-.4 3-1.3q1.3-1.4.7-.4-.3 1.2 1.4 2.2c1.7 1 2.2.5 4.4-4.3 2.1-4.6 2.9-5.4 4.6-4.9q2.3.5 1.5 2.5c-.5 1.6.4 1.4 6.4-1.6 6.5-3.3 7.2-4 9.6-9.2 1.6-3.4 3.1-5.4 3.8-5.1.7.2 3-.4 5.1-1.5 2.2-1.1 4.1-1.7 4.4-1.4q.7.3 1.8-1c.9-1.3 1.6-1.4 3.3-.5 1.9 1 2.3.6 4.6-4.5q2.6-5.9 4.1-5.1 1.4.5 2.1-.4.6-1 1.7 0c2.4 2.4 5.1-.7 6.9-7.7.2-.7 4-3.1 8.6-5.2l8.2-3.9-1.5 2.8c-1.3 2.7-1.3 2.8.9 2.4q2.3-.3 4.9-5.9c2.3-4.6 3.5-5.8 8.6-8.4 3.3-1.6 6.2-3.4 6.6-4 1.2-2 2.7-1 2.1 1.4-1.2 5 2.2 3.7 5-1.9 2.4-4.7 3-5.3 4.7-4.4 1.5.9 2.2.6 3.3-1 .8-1.1 2.1-1.8 2.9-1.5q1.4.5 1.5-.8c0-.8.9-2.3 2-3.3 1.8-1.6 2-1.6 2-.2q0 1.6.4 1.7c.2 0 1.1.2 1.8.5q1.5.6 3.8-4.7l2.6-5.6c.7-1.4 3.5 1.5 3.1 3.4-.4 2.2-.2 2.1 6.8-1.3 6.8-3.4 7.3-3.9 9.8-9.6 2-4.5 3-5.8 4.2-5.3q1.8.7 1-1.4-.6-2 .8-2 1.4.2 2 2c.9 3.6 3.4 2.1 5.8-3.5 3-6.9 6.3-8.6 11.5-6.2 3.7 1.8 3.7 1.9 4.8-3.5.5-2 1.8-3.2 5.2-4.8 5.6-2.4 5.3-2.4 4.7-.1q-.4 1.8 1.1 2.4c1.4.6 5.6-6.5 5.6-9.4q.1-.8 1.3-.9c2.2 0 3.8 1.6 3.1 3.3-.8 2.3-.4 2.2 7-1.5 5.8-2.8 6.6-3.7 9.1-8.8 2-4.3 3.3-5.8 4.9-5.8l3.6-.3c.8-.1 2.3.2 3.3.6q1.7.8 1.7-.6c0-2.5 3.1-4.9 5.1-3.9 1.5.9 2.1.2 4.3-4.5 1.4-3 2.9-5.5 3.3-5.5 1.9.1 3.3 1.8 2.7 3.3-.8 2.3-.4 2.2 7-1.5 5.8-2.8 6.6-3.6 9.2-9 2.2-4.6 3.2-5.8 4.6-5.5q1.6.4 1.8-.6 0-1 .5-.5c.3.3.1 1.7-.4 3.1m344.1 1109.4c2 2 3.4 4.2 3.1 4.9s.5 2.7 1.6 4.3c1.9 2.6 2.6 2.9 6.6 2.6 4.3-.3 4.6-.1 8.1 4.7 1.9 2.7 4 6 4.6 7.3 1 2.3 2.9 2.6 7.4 1.1 1.8-.5 2.8.4 6.3 5.5 4.2 6.4 4.9 8.3 3.1 9.4-1.2.7-.4 2.5 1.1 2.5q.8-.2.9-1.5c0-1.6-.1-1.6 5.3-1.9 3.7-.3 4 0 7.9 5.6 3.4 5.1 3.9 6.5 3.3 9.5-.6 3.4-.6 3.4 2.7 3.1 2.5-.2 3.3-.8 3.3-2.2 0-1 1-2.2 2.1-2.7 2.3-.8 5.9 3.2 9.8 10.9q1.8 3.6 3.4 2.7c5.5-2.2 6.8-1.6 11.1 5.1 2.2 3.6 4.1 7.2 4.1 8q.2 1.2 1.8 1.2c3.7-.3 4.8.3 5.9 3.1.8 2.3 1.9 3.1 4.7 3.7 2.9.5 4.4 1.7 7.6 6.1 3.8 5.4 3.9 5.4 5.8 3.5q2-1.9 3.2-1.2c.7.5 1.9.6 2.7.3q1.3-.4 1.3 1.3c0 1.6 7.7 14.4 8.7 14.4l2.3-1q2-1 2.5 0 .7 1.2 2 0c1.9-1.6 16.5 10.5 16.5 13.7 0 2 .3 2.2 1.8 1.4 2-1.1 7.8 3.2 6.7 4.9-.9 1.4 3.4 8.2 4.9 7.7.6-.3 2 .3 3 1.2q1.8 1.3 1.3.6-.3-1.1 1.3-2.2c1.6-1 2.3-.4 6.3 5.6 3.3 5 4.3 7.1 3.4 8q-1.2 1.2 1.4.5c7.6-1.8 9-1.3 13.5 5.2a85 85 0 0 1 4.6 7.4c.3 1 .9 1 2.8 0l2.3-1.3-2.1 3.7-2.1 3.6 2.4-1.6q2.3-1.5 2.1-2.3-.3-.7 1.4-1.8c1.6-1 2.3-.5 5.4 4.3 2 3 4.1 6.7 4.7 8.1.8 2.1 1.2 2.3 2.5 1.3q1.5-1.5 2.6-.2 1 1.2 3.2-.3c2-1.3 2.5-1.1 6.4 2.6 4.5 4.5 4.8 5 3.1 8.1q-2.3 4 2.8 1.5c2.7-1.5 2.9-1.4 7.8 2.7 2.7 2.4 6.2 5.1 7.7 6s2.5 2.2 2.3 2.7.3 2.6 1.4 4.7c2.1 4.1 5.3 4.9 8.6 2.2 1.4-1.2 1.9-1 3.8 1.1 1.2 1.4 4 3.9 6.2 5.4s7.7 6.3 12.1 10.4c7 6.4 8 7.7 7.1 9.2-1.3 2.1-.4 3.5 1.5 2.3 4.1-2.6 7-1.1 11.7 6.1l4.9 7.5c.1.2 1.1 0 2-.6 3.7-2.1 6.6-.5 11 6 2.3 3.4 4.2 6.8 4.2 7.5q.1 1 1.1.6t2.4 1.1c1.2 1.8 1.4 1.7 3.3-.6l2-2.4 4.8 7.6 4.9 7.6 4.5-.3 4.5-.3 4.3 6.4c2.3 3.5 4.2 6.7 4.2 7.1 0 1.2 5.2 1.3 7.2.2 1.8-1 9.3 8.1 10.4 12.8q.7 2 1.7 1.6c2.7-1.6 8-1.1 9.9 1a59 59 0 0 1 6.7 12.2q.2.4 1.9-.4c1.4-.8 2-.4 3.1 2q1.2 2.8 1.9 2.5.3-.6-.7-2c-1-1.2-.8-1.7.8-2.5s2.3-.6 4.2 2.2a27 27 0 0 0 4.1 4.5c1 .7 1.8 2 1.8 2.8q.1 1.3 1.3 1.4c.7 0 3 1.8 5.2 4 3 3.1 4.2 3.7 5.6 3 2.5-1.4 2.4-1.4 4.3 2.9 2.2 4.8 9.8 10.5 11.6 8.8q1.4-1.4 1.7 0 .5 1 1.6.8c.7-.3 2.2 1.8 3.5 4.9 1.3 3 3.1 5.7 4 6l3.1 1.2q1.2.5.8-.3t1.3-2.1c1.6-1 2.3-.3 6 5.3 2.3 3.6 4 7.1 3.7 8-.7 1.8 1.1 7.5 2.4 7.5s1.1-.7-.2-3.2c-1.4-2.7-.2-3.8 4.9-4.3 4.2-.4 6.7 1 3.8 2.1-2.2.8-1 2.4 1.8 2.4 1.3 0 2.9.6 3.5 1.3 1.8 2.3 1.6 259.7-.3 259.7-1.1 0-1.6 2.4-2.1 10.4-.9 13.5-1 13.5-7.6 10-4.8-2.6-5.4-3.2-5.1-5.7s-.7-3.5-2.1-2.1c-.4.4-2 .8-3.7.9-2.7.2-3.5-.4-6.9-5.4a44 44 0 0 1-4.4-7.5c-.6-1.6-1-1.7-3-.4-3.8 2.4-5.9 1.1-11.1-6.7l-4.9-7.3-4.2.3c-3.8.2-4.4-.1-6.1-2.9-1.5-2.6-8.7-12-11.4-14.9-.4-.5-1.7-.4-2.8.2s-2.3.7-2.6.3-1.5-.7-2.4-.7c-1 0-2.6-1.9-4-4.5-2.1-4.3-2.4-4.5-6.7-4.5-4.2 0-4.5-.2-8.5-5.9-9-12.9-10.6-13.9-17-11.2q-1.5 1-3.6-4.6l-2.2-5.3h-4.6c-4.5 0-4.7-.1-10.6-7.5-3.3-4.1-6-8.3-6-9.2 0-1.5-.8-1.7-4.9-1.4l-4.9.4-4.8-7.3c-4-6.1-5.1-7.2-6.5-6.4q-1.7.8-2.4-.1t-2.5 0c-1.4.8-2.2.4-4.2-2.3q-5.9-8-5.8-10.2-.2-1.4-1.9-1.5-1.8 0-2.3-1.2t-2.8 1c-1.3 1.2-2.7 1.9-3 1.5l-6.9-10-6.2-9.1-4.1.4c-2.3.2-4.3.6-4.6.9s-1.6-2-3-5.1q-2.5-5.3-3.9-5-1.2.3-2.9-2.7c-1.9-3.7-5.3-7.7-6.6-7.7-.5 0 .7 2.1 2.7 4.7 3.3 4.3 3.4 4.8 1.8 5.7-2.3 1.2-1.6 1.8-9.6-8.8-6.6-8.9-14.4-16.7-11.8-11.9q1.4 3.1-2.8 3.3c-1 0-4.3-7.3-3.9-8.6.5-1.9-6.2-6.8-7.4-5.6q-1.2 1.1-2.3.2-1.2-1-3 .4c-1.7 1.2-2.2.8-5.7-4.8a65 65 0 0 1-4.4-7.8c-.9-2.5-3.2-3-3.9-.7-1.1 3.3-5.6 1.9-8.2-2.7-5.1-8.8-6.9-11.4-8-11.4-2.1 0-2.4 1.9-.7 4.5.9 1.4 1.4 2.8 1.1 3.2-.3.3-1.4-1.1-2.4-3.1q-1.7-3.8-3.4-3.3c-1.7.5-10.9-11.7-10.9-14.3 0-1.3-1.7-1.3-2.5 0q-.7 1.1-2.1-.1c-1.1-.9-1.7-.9-2.8 0-1.2 1-2 .3-4.7-3.6-3.7-5.4-4.9-6.5-6.6-5.9-.6.3-1.9-.4-2.9-1.5-.9-1-2.7-1.9-3.8-1.9-1.9 0-10.1-10.7-10.1-13.1 0-1.5-1.1-1.7-5.2-1-4 .8-4.3.7-7.3-3.1q-3.1-3.8-2.5-5.7.8-2.1-1.2-1.5c-2.3.6-6.6-5.5-5.7-8 .8-2 .1-2-3.6-.1-3.4 1.7-7.3.7-8.4-2.2a37 37 0 0 0-8.2-11.3c-.6 0-1.7-.7-2.4-1.5-1.4-1.7-3.5-2.1-2.4-.4.6 1-1.1 2.8-2.8 2.9-.3 0-2.7-3.2-5.2-7.1a33 33 0 0 0-7.1-8.5q-2.3-1.1-2-.4c.5.8-3.3 3.6-3.9 2.8-1.8-2.1-8.6-12.8-8.6-13.4 0-2-5.1-3.4-6.7-1.9q-1.4 1.4-2.3 1.5c-1 0-9-12.2-9-13.8 0-1.3-5.7-.5-7.8 1.1-1.5 1.2-1.2 1.5-6.7-7.4a41 41 0 0 1-3.5-6.5c0-1.9-5.4-3.5-6.3-1.9-1.5 2.8-3.5 1.5-7.8-5.3-7.3-11.1-8.5-12.2-13.6-11.8-3.6.3-4.6 0-5.4-1.8-.6-1.1-2.7-4.5-4.7-7.4-3.4-5-3.6-5.2-5.8-3.7q-2.1 1.4-2.9.5c-.3-.5-1.2-.7-1.9-.4-1.2.5-9.6-11-9.6-13.2 0-2-5.1-3.4-6.7-1.9-2.3 2.4-2.7 2-9.8-8-5.4-7.6-7.2-9.4-8.6-9q-1.8.5-1.9-.3-.2-1-2-.5c-2.2.6-4.3-.9-17-12.1-5-4.3-9.9-9.4-11-11.2-2-3.1-2.4-3.2-6.9-2.9l-4.9.4-2.1-4.9c-1.6-3.7-2.5-4.8-3.7-4.3-5.1 1.9-6.8 1-12.1-6.7-8.5-12.1-9-12.7-10.4-11.3q-1.2 1.4-2.6.2-1.3-1.2-2.7 0c-1.2 1-2.3 0-6-5.6a38 38 0 0 1-4.6-8q-.1-1.1-1.4-.7-1.5.3-3.7-2.5c-1.7-2.4-3.1-3.1-5.5-3.1-3.2 0-7.4-3.9-7.4-6.9 0-1.5-1.6-1.4-3.3.3s-6.7 1-6.7-.9c0-1.3-8.9-15.5-9-14.2 0 .5-1.5-.2-3.2-1.4q-2.9-1.9-2.1-.9c1.3 1.4.1 4-1.8 4a56 56 0 0 1-9.2-13.4q-.7-1.7-2.2-1.2-1.4.4-2-.4t-3 .6c-2.2 1.4-2.4 1.4-3.6-.7-.9-1.8-10.1-14.8-12.6-17.8q-.3-.2-2.2 1.3-1.9 1.8-2.6.6-.6-.8-1.6-.5c-1.3.9-3.7-1.7-5.7-6.2-1.7-3.8-5.5-5.1-8.8-3q-1.1.5-2.9-3.3c-1.3-2.9-2.7-4.2-5.1-5-1.9-.6-4.3-2.3-5.3-3.7q-2-2.5-4-1.8c-1.5.5-3.1-1.2-8.5-9a49 49 0 0 0-7.8-9.5c-.6 0-2-.8-3-1.7-1.7-1.5-1.8-1.5-1.3-.1s-3 3.8-3.9 2.6a63 63 0 0 1-9.7-16.3c-1.4-4.8-1.6-5-3.8-3.6q-1.2.8-.7 2.9.8 2.2-1.2 3.1c-1.7.9-2.5.1-6.6-6.3-4.2-6.7-4.9-7.3-7.6-7.1-1.7.1-3.3.5-3.7.9q-.6.5-1.4.6a52 52 0 0 1-9.3-13.8c-.4-2.5-4.8-3.1-7-1q-3.5 3.1-3.6.7c0-.6-1.9-4.2-4.2-7.9-4.6-7.4-8.5-10.3-10-7.6s-3.2 1.7-7.5-4.7c-3.1-4.6-4-6.9-3.6-8.8.4-2.4.2-2.6-2.1-2.2q-2.4.4-2.6-.6t-5-.7l-5.1.4-4-7.9-3.9-7.9h89v2.6q0 2.7 1.4 2.1c.7-.3 3.4-.9 6-1.2 2.6-.4 5.3-1.4 6.1-2.1 1.4-1.4 142.9-2.4 231-1.5l37 .3z"/><g fill="#FFF"><path d="M929 115.7q-.1 1-1.8.6c-1.4-.3-2.4.9-4.6 5.5-2.6 5.4-3.4 6.2-9.2 9-7.4 3.7-7.8 3.8-7 1.5.6-1.5-.8-3.2-2.7-3.3-.4 0-1.9 2.5-3.3 5.5-2.2 4.7-2.8 5.4-4.3 4.5-2-1-5.1 1.4-5.1 3.9q0 1.4-1.7.6c-1-.4-2.5-.7-3.3-.6l-3.6.3c-1.6 0-2.9 1.5-4.9 5.8-2.5 5.1-3.3 6-9.1 8.8-7.4 3.7-7.8 3.8-7 1.5.7-1.7-.9-3.3-3.1-3.3q-1.2 0-1.3.9c0 2.9-4.2 10-5.6 9.4q-1.4-.6-1.1-2.4c.6-2.3.9-2.3-4.7.1-3.4 1.6-4.7 2.8-5.2 4.8-1.1 5.4-1.1 5.3-4.8 3.5-5.2-2.4-8.5-.7-11.5 6.2-2.4 5.6-4.9 7.1-5.8 3.5q-.6-1.8-2-2-1.5 0-.8 2 .8 2.1-1 1.4c-1.2-.5-2.2.8-4.2 5.3-2.5 5.7-3 6.2-9.8 9.6-7 3.4-7.2 3.5-6.8 1.3.4-1.9-2.4-4.8-3.1-3.4l-2.6 5.6q-2.3 5.3-3.8 4.7c-.7-.3-1.6-.5-1.8-.5q-.3-.1-.4-1.7c0-1.4-.2-1.4-2 .2-1.1 1-2 2.5-2 3.3q0 1.3-1.5.8c-.8-.3-2.1.4-2.9 1.5-1.1 1.6-1.8 1.9-3.3 1-1.7-.9-2.3-.3-4.7 4.4-2.8 5.6-6.2 6.9-5 1.9.6-2.4-.9-3.4-2.1-1.4-.4.6-3.3 2.4-6.6 4-5.1 2.6-6.3 3.8-8.6 8.4q-2.6 5.6-4.9 5.9c-2.2.4-2.2.3-.9-2.4l1.5-2.8-8.2 3.9a28 28 0 0 0-8.6 5.2c-1.8 7-4.5 10.1-6.9 7.7q-1-1-1.7 0t-2.1.4q-1.5-.8-4.1 5.1c-2.3 5.1-2.7 5.5-4.6 4.5-1.7-.9-2.4-.8-3.3.5q-1.1 1.3-1.8 1c-.3-.3-2.2.3-4.4 1.4-2.1 1.1-4.4 1.7-5.1 1.5-.7-.3-2.2 1.7-3.8 5.1-2.4 5.2-3.1 5.9-9.6 9.2-6 3-6.9 3.2-6.4 1.6q.8-2-1.5-2.5c-1.7-.5-2.5.3-4.6 4.9-2.2 4.8-2.7 5.3-4.4 4.3q-1.8-1-1.4-2.2.6-1-.7.4c-.7.9-2.1 1.5-3 1.3q-1.5-.4-4 5.3c-2.2 5.1-2.7 5.7-10.1 9.4l-7.8 4 1.6-3c2.4-4.7 1-5.9-2.2-2.1q-1.7 2-2.4.8-.7-1-2.3 2.1c-1.4 2.6-2 3-3.5 2.2-1.8-1-6.1 2.4-6.1 4.9 0 .6-1.1 1-2.4 1s-2.6.6-2.9 1.4q-.7 1.3-2.5.9c-1.6-.4-2.4.6-4.3 5.2-2.3 5.5-2.7 5.9-10.2 9.7-4.4 2.1-7.6 3.4-7.2 2.9q.4-1-1.5-1.1-2 .1-4.1 3.5c-1.8 2.9-2.4 3.3-4 2.5-1.7-1-1.9-.7-1.9 3.2-.1 4.1-.1 4.2-1.6 2.3-1.1-1.6-2.7-2-6.7-2h-5.2l-2.4 5.2c-1.9 4.2-2.9 5.3-4.7 5.3-1.3 0-2.4.5-2.4 1.1q0 1.2-4.1.6c-3.9-.5-4.1-.4-3.6 1.9.5 2.7.3 2.8-2.5 1.3-3.2-1.7-9.6 6.2-6.7 8.3q1.6 1-.4.4c-1-.3-2.3-.6-2.8-.6q-.9-.1-.4-2.1t-.1-1.6l-7.6 3.6c-6.2 2.9-7 3.6-9.8 8.9-4.5 8.7-4.1 8.5-8.1 6.8l-3.4-1.4-1.9 4.4c-2 5-5.3 5.9-4.8 1.4l.2-2.5-2.5 2.9c-1.4 1.6-2.5 3.7-2.5 4.8 0 1.6-.6 1.8-5.1 1.3l-5.1-.5-2.6 5.9c-2.4 5.5-3 6-9.7 9.4-6.9 3.4-7.1 3.4-7.1 1.4q.3-2.4-2.6-2.5-3.1-.5-2.2 1.2c.3.9-.1 2.8-1.1 4.2-1.5 2.3-1.9 2.5-3.2 1.1-1.3-1.2-1.9-1.3-4.2-.2l-7.3 3.3c-4.1 1.8-5 2.8-7.4 8.2-2.6 5.9-2.7 6-5 4.5-2.1-1.4-2.3-1.4-1.7.1.5 1.4.3 1.5-1.5.5-1.1-.6-2.3-1.1-2.6-1.1-.9 0-4.6 9.2-4 10.1.3.5-.7.9-2.1.9-2.4 0-2.6-.3-2.1-2.5.8-3.2.8-3.2-8 1-4.4 2.1-7.4 4.1-7.4 5.1 0 3.1-4 9.4-6 9.4q-1.8.1-2 1.4c0 2.7-2.5 3.8-5.6 2.4-2.1-1-2.8-1-3.1-.1q-.5 1.2-2.7.3c-2-.7-2.5-.3-4.4 3.6q-2.2 4.5-4.2 4.4t-1.4-1.5c.8-1.9.3-1.9-4 .2-2 .9-4 2.9-4.7 4.5-1.2 3.1-2 3.3-5 1.8q-2-1.3-1.9.5c0 3.9-3.9 9.2-7.2 9.9-1.9.4-3.4.2-3.6-.4q-.9-2.2-5.1 1.1c-2.5 2.1-1.7 3.8 1.7 3.9q3.9 0-5.1 5.1l-10.1 6c-3.8 2.2-3.8 2.2-2.7.1.9-1.8.8-2.3-.9-3.2s-2.3-.6-4.5 4.2c-1.4 2.9-2.8 7-3.1 9.1-.6 3.5-.9 3.8-3.3 3.2l-2.7-.8-1.8-3c-1.7-2.7-1.8-2.8-4.1-1.3-1.4.9-3 1.6-3.8 1.6s-2.3 2-3.5 4.5c-2.1 4.4-2.1 4.5-.2 5.5 1.1.6 2.5.8 3 .5q.9-.4 1.4.4.3.9-1.8 1.5l-4.2 1.3q-2 .9-1.1-1.1.7-2-.5-1.3c-5.1 2.1-4.9 2.1-3.7-.7 1.6-3.4.8-4-3.3-2.7-6.4 2.1-9.3 4.7-13.2 11.9q-5.6 10.4-5.6 5.7c0-1.3-3.7-4.1-4.5-3.3l-2.7 5.3c-1.7 3.7-2.8 4.9-4.1 4.7q-1.8-.4-3.1 2.9-1.3 3-2 2t-1.5-.7c-1.8 1.1-3.3-1.1-2.2-3.3 1-1.8-.3-1.3-7.9 2.6-5.6 2.9-9 5.3-9 6.3 0 2.8-4.5 8.1-5.8 6.8q-1.1-1.2-1.8.5c-.5 1.3-.9 1.4-2.4.5-1.6-1-2.6-.5-6.9 3.2-6.2 5.6-6.9 7.6-4.1 12.9l2.1 4.2-2.2 6.8-2.2 6.8 2.2 6.3c2.1 6.4 2.1 6.7 2.1 110.4 0 95.3-.1 104.1-1.7 105.8s-1.5 1.9.1 3.7c4.7 5.2 5.8 17.2 2.7 29.6-1.5 6.3-1.9 7-4 6.7l-2.3-.2.4 13.2c.3 12.5.5 13.5 3 17.5 1.6 2.4 2.8 4.5 2.8 4.7q-.2.5-2.8.8c-3.1.3-4.8 5.8-1.8 5.8 1.4 0 1.6 6.2 1.6 60.2 0 33.2.5 157.5 1 276.3l1 216 2.3 1.7a7 7 0 0 0 5.3 1.3c2.8-.3 3.3 0 4.9 3.6 1.8 3.9 2.9 4.6 5.3 3q1.3-.9 5.9 3.6c3.8 3.8 4.9 4.3 7.3 3.8s3-.2 3.5 1.5c.9 2.8 7.9 7.4 10.4 6.7q2-.5 2.6 1.2c.3.9 3.3 4.1 6.7 7.1 5.6 5 6.7 5.5 10.8 5.5 4.5 0 4.7.1 6.3 4 .9 2.2 1.7 4.6 1.7 5.3q-.1 2 8.3-.4 1.5-.4 1.7.4c0 2.4 9.7 10.9 13.7 12q4 1.3 4.8 3.2.7 1.8 1.7 2 1 0-.1-1.4-1.4-1.3.3-2.6c2.4-1.9 14.8 8.1 17.7 14.2l2.3 4.8 3.4-.9c2.8-.8 3.2-.7 3.2.9 0 2.2 5.9 4.5 9 3.5 1.7-.5 2.4.1 4.3 4.3l2.2 5 5.3-.4c4.3-.4 5.2-.2 5.2 1.1 0 2.1 7.6 10.2 10.3 11.1 1.2.4 3 1.5 4 2.5 1.8 1.9 4.3 2.7 3.2 1q-.4-1 1.4-2.1c1.8-.9 2.2-.5 4 3.6 1.2 2.6 2.1 5 2.1 5.5q0 2.5 5.7.5l3.9-1.4 2 5q3.4 8.8 8.9 5.2c2.3-1.5 2.4-1.4 3.9 1.4 3 5.8 15.7 13.9 19 12q1.5-.8 1.9-.6c.2.1 1.3 2.5 2.5 5.1 1.8 3.9 2.6 4.7 4 4.2 6.2-2.6 15.8 2.6 18.9 10.2 1.5 3.6 2.2 4.3 3.8 3.8 5.5-1.6 6.5-1.3 8.5 2.6 1.1 2.1 2 4.5 2 5.4 0 1.8 1 1.9 4.4.4 2.1-1 3.4-.8 7.5 1 2.7 1.1 6 2.1 7.2 2.1q2.5 0 1.2 1.1c-2 2 2.6 10.1 5.2 9.3q1.9-.6 2.5-.6c3.8-.1 4.7.6 6.7 5.3l2.3 5.1 4.4-.4c4.1-.3 4.6 0 7.6 3.7 4.9 6.2 10.7 9.7 15.4 9.3 3.7-.4 3.9-.3 6.4 4.9 2.7 5.5 2.6 5.5 9.5 3.6q1.5-.2 1.7.7c0 1.9 10.3 11.6 13.5 12.7 1.7.6 4.4.8 6 .6 2.8-.4 3.2 0 5.1 4.5l2.1 4.9 4.5-.3c4.3-.3 4.6-.1 7.7 4.2 1.7 2.5 3.7 4.4 4.3 4.2s2.1.6 3.3 1.8c1.3 1.3 3.9 2.6 5.9 2.9 2 .4 3.6 1.1 3.6 1.6q.1.8 1.4.9c.8 0 2.4 1.6 3.6 3.5 1.2 2 2.7 3.4 3.4 3.2s1.9 0 2.8.4q1.8.9 2.5-.6c.7-1.2 1.7-.9 6.1 2 5 3.4 9.9 10.4 8.4 12-.8.9 5.3.1 8.2-1.1 1.6-.6 1.7-.5.7 1.4s-.9 2.2.4 2.2c.9 0 2.5 1.5 3.5 3.3 2.4 4.1 6.5 6.4 7.4 4.1.6-1.4 3.6-2 3.6-.6 0 .4 2 3 4.4 5.8 4.7 5.3 12.1 8.8 13.6 6.4.8-1.3 6.4 4.7 7.5 8 .5 1.7 1.2 2 3.4 1.5q2.7-.7 7.3 2c2.5 1.4 5.3 2.3 6.1 1.9 1.6-.6 5.7 5.9 5.7 9.1q.2 1.3 1.9 1.5c1.1 0 2.3.5 2.7 1.1s2 .9 3.9.6c2.9-.5 3.8 0 8 4.3 5.2 5.3 8.2 6.7 13.2 6.4q3.3-.2 3.8 1.6c1.4 4.4 15.5 13.4 17.1 10.9.9-1.5 4.8 2.5 6.9 7.2 2 4.3 2.3 4.5 4.9 2.6 1.5-1.1 1.7-1.7.7-3.5q-1.2-2.2-.1-2.2c.6 0 1.6 1.1 2.2 2.5q1 2.3 1.8 2.5c.4 0 1.9 1.8 3.4 4 3.1 4.7 15.6 11.3 19.5 10.3q2-.5 1.9.3c-.5 1.6 3.5 9.5 4.6 9.1.6-.3 1.9 0 2.8.4q1.6.8 2.3-.1c.9-1.4 3.5-1.2 3.5.3 0 4.1 16.2 14.7 17.3 11.3q.4-1.2 2.1.3c1.4 1.2 1.9 1.2 2.6.2q.8-1.2 1.4-.3.4 1-.5 1.4-1.2.4.9 4.5c2.2 4.3 6 6 9.4 4.2 1.5-.8 2.1-.3 3.5 2.6.9 1.9 2.2 3.5 2.9 3.5s2.3 1.3 3.6 2.8c2.7 3.2 8.7 5.7 10.1 4.3 2.4-2.4 5.5 1.1 8.1 9.2.5 1.6.8 1.7 2.6.4s2.7-1.2 7.8 1.4a19 19 0 0 0 6.9 2.5c.7-.3 2.2 1.7 3.7 5.1 2.1 4.4 2.9 5.4 4.3 4.8 5.5-2.1 6.8-1.6 9 3.8q2 5 3.5 4.8c3.4-1.1 11.7.3 16.6 2.8 5.3 2.7 6.8 2.6 11.7-.4 5.1-3.1 6.5-3.1 6.5.1v2.6l3.5-2.6c1.9-1.5 3.9-2.5 4.3-2.2 1.3.8 5.5-7.2 4.8-9.1q-1-1.8 1.6-.8c7.4 2.2 8.4 1.9 10.9-3.8q2.3-5.5 3.9-5c.9.2 3.3-.8 5.4-2.2 4.1-2.8 6-3.2 8.9-2 1.4.6 2.2-.3 4.3-4.9 2.4-5.2 3.1-5.9 9.5-9.1 7.5-3.8 7.6-3.8 5.3.6s-1.5 4.5 6.5.5c5.6-2.9 7.5-4.4 9.1-7.5 1.9-3.9 4.9-5.5 10.4-5.6q1.8.1 4-5.2 3.1-8 5.4-3.7c.8 1.4 1.2 1.1 2.1-1.9 1.5-4.5 6-6.5 9.6-4.1 2.2 1.4 2.4 1.3 4.4-2.1 1.1-2 2.5-3.4 2.9-3.1.5.3 2.3-.4 4.1-1.5s3.6-1.7 4-1.5c.4.3 1.8-1.7 3.1-4.5 2.5-5.2 5.8-6.6 5.2-2.1-.3 2.1-.2 2.1 2.5.8 1.5-.8 4.9-2.3 7.4-3.4 3.7-1.6 5-2.9 6.8-6.6q2.1-4.7 4.1-4.6 2-.2 2.6-1.5.6-1.5 3-.9c2.1.6 2.7 0 5-5.1 2.1-4.6 3.4-6 7-7.8 2.4-1.1 4.4-2.6 4.4-3.1q.2-1 2.5-1.1 2.7-.1 1.9 1.7c-.4 1.4 3.2 3.8 4 2.6 2.3-3.4 3.7-9 2.7-10.2-1.1-1.3-.7-1.7 2.2-2.9 7.2-3.1 7.7-3.1 7.7-.3 0 3.1.9 3.2 4.3.6 1.4-1.1 3.2-1.7 4.1-1.4 1.2.5 2.2-.6 3.9-4.5l2.2-5.2 4.5.3c4.5.3 4.5.2 6.8-4.4s6-6 4.7-1.7c-.8 2.5-.2 2.4 7.5-1.4 6.2-3.1 9.4-6.7 12.3-14.2q.5-.9 2.5.2c3.4 2 6.7.1 8.8-5.2 1.6-3.9 2.2-4.5 4.2-4 1.2.3 2.2.1 2.2-.5q0-1.1 1.9 0c2.7 1.4 2.5 1.6 5.1-4q3.1-6.8 5.3-4.4.5.8-.4 2.6c-.8 1.5.7 1 7-2.1 7.5-3.8 8.1-4.4 10.5-9.6 2.3-5.1 2.7-5.5 4.6-4.5 1.7.9 2.2.7 3.2-1.5q1.2-2.4 2.5-2.1 1.2.4 1.3-.3.2-.8 2-.4t2-.6q-.1-1.2 1.9-.1c2.7 1.4 2.5 1.6 5.1-4q2.4-5.1 4.4-5.1c2.7-.2 2.8-.2 4.8.6 1.3.5 2.3-.5 4.3-4.5 2.7-5.4 4.2-5.9 9.5-3.6 1.3.5 5.1-6.1 5.6-9.9l.2-2.4q.1-1.7 2.5.7c4.1 3.9 7.1 2 4.1-2.6-4.5-7-11.7-15.2-12.7-14.5-3.9 2.4-7.3 1-11.1-4.6a44 44 0 0 1-4.3-7.9q-.5-2.4-2.2-1.6c-2.8 1.2-8.1 1.7-8.1.6 0-2.3-8.3-13.2-10-13.2-1 0-2.2-.5-2.5-1q-.7-.9-2.1.5c-1.8 1.7-3.4 2-3.4.4 0-.8-6.6-11.3-8.6-13.8-.2-.2-1.2.3-2.2 1.2-1.8 1.7-7.2.5-7.2-1.6 0-2.3-4.7-7.7-6.3-7.3q-1.7.5-3.3-2.6c-1.4-2.7-1.9-3-5-2.5-1.9.3-3.4.2-3.4-.4a32 32 0 0 0-3.5-6.2 25 25 0 0 1-3.5-6.4q-.1-2.4-4-.3-2 1-2.5 0-.7-1.2-2 0c-1.5 1.2-6.3-4.9-9.1-11.6q-1.5-3.7-3.1-3c-.8.4-2.1.2-2.8-.4q-1.2-1.2-1.9.5c-.7 1.9-3.6 2-3.6.2 0-1.1-6.5-11.3-8.6-13.6q-.4-.2-1.9.9-1.6 1.4-2.8.1-1.4-1-2.4 0c-1.2 1.2-6.3-5.5-8.9-11.7q-1.5-3.7-3.2-3-8.3 2.4-8.2.4c0-.7-1.4-3.3-3.1-5.8l-4-6.8c-.7-1.9-1.2-2.1-2.8-1.3-1 .6-2.1.8-2.4.5s-1.5-.1-2.6.6c-1.9 1-2.5.5-6.1-5.2-2.2-3.5-4-6.9-4-7.6 0-2.4-4.7-1.1-12.7 3.8a48 48 0 0 1-8.3 4.4c0-.3.9-2.3 2.1-4.5 1.1-2.3 1.8-4.3 1.6-4.6-.9-.9-6.7 2.7-8.3 5.2q-1.7 2.4-4 2.5-2.3 0-3.8 2.8c-1.9 3.5-10.3 10.5-11.7 9.6-1.5-.9-5.9 1.6-5.9 3.4q-.1 1.3-1.4.9c-.8-.3-2.4.3-3.7 1.4q-4 3.4-2-.9l1.1-2.5a38 38 0 0 0-7.7 3.7c-7.1 3.8-8.1 4.6-11.3 10.5-3.5 6.4-6.8 9.5-5.6 5.2l1.2-4.1c.7-2.6-.2-2.5-5.1.5a118 118 0 0 1-12.5 6.6c-.8.5-4.5 2.5-8.3 4.4-6 3.2-7 4.2-9.4 9-2.1 4.3-3.1 5.4-4.5 4.9q-1.8-.5-1.8 1c0 2.9-3.3 3.6-5.4 1.1-3.1-3.7-8.5-1-8.6 4.2 0 2.7-.7 2.9-3 .8-2.9-2.6-14.8 3.7-16.5 8.7-1.7 5.1-4.2 8.8-6 8.8-1.1 0-1.2-.5-.5-2.6 1.7-4.4 1.2-4.5-6.2-1a106 106 0 0 1-12.1 4.9l-4.7 1.4-1.9-4.2c-2.5-5.6-5.5-7.1-10.4-5-1.5.6-1.8.3-1.5-2 .4-3.6-12.4-13.5-15.1-11.7-.9.5-1.5 1.5-1.3 2.1.4 1.8-3-.3-4.8-2.9-.8-1.3-2-2.8-2.6-3.4s-1.6-2.2-2.3-3.5c-1-1.9-1.8-2.2-4.2-1.7-3.3.6-8.7-1.4-11.3-4.3-1-1.1-2.2-1.8-2.7-1.5-.5.2-1.7-1.3-2.9-3.6-1.9-3.8-3.9-4.8-7.5-4-3 .7-3.8 0-5.9-4.7-2.1-5.1-2.3-5.2-4.3-3.8-1.2.9-2.4 1.1-2.7.6s-1.4-.7-2.4-.4q-1.8.6-3-2.9-2.6-7.5-5.5-6.2-1.6.8-1.3 2 .4 1.3-.4 1.4-1-.1-1-1.8 0-1.9-3.9-3.2c-4.3-1.4-13.1-9.2-13.1-11.5q.1-2.8-3.6-.1-4.7 3.3-7.7-3.7a27 27 0 0 1-1.7-5.5c0-1.4-5.4-1.4-8.1-.1-1.3.6-2-.1-3.5-3.3a10 10 0 0 0-5.3-5.5c-4.5-1.9-9.9-6-10.6-8.2-.5-1.7-6.1-2.1-8.5-.6q-1.4.8-.6-2.1c.5-2.7 0-3.3-7.1-8.2-6.6-4.7-7.8-5.2-9-3.9-2.3 2.3-6.5-.4-9.2-5.7-2-4.2-2.4-4.4-4.6-3.4q-2.1 1-2.2 2.1c.7 3.5-2.5.7-5.3-4.5l-3.6-6.6q-.3-.3-2.3.7c-1.1.7-2.2.7-2.5.2-1-1.5-4.5 0-5.2 2.3-.7 2.1-.7 2.1-1.5.1-1.1-2.9-1-3.5.4-2.9q1.3.3 2.4-1.9c1.1-2.4-.6-4.1-13.2-13.1q-1.4-1-3 .4c-3.4 2.8-5.8 1.8-8.2-3.3s-6-6.5-7-2.7c-.7 2.6-2.3 2.6-2.3-.1q0-1.8-.9-1.4c-.5.3-2.1-2-3.5-5-2.3-5-2.7-5.5-4.5-4.5q-2 1-2.6 0-.8-1-2.3-.6-1.7.6-3.8-3.7c-1.8-3.8-2.4-4.2-6-4.3-2.1-.1-4.5.3-5.1.8-1.6 1.3-1.7-.5-.3-3.2.8-1.5-.2-2.6-6.7-7.4q-7.7-5.4-8.7-4.6c-.6.6-2.4 1-4.1 1-3.1 0-6.5-4.4-6.5-8.5 0-1.9-2-1.9-4.4-.2-4.2 3-7 .3-9.3-9-.6-2.5-3.5-2.4-10.3.4-3.3 1.3-3.4 1.3-1.8-.3 2.5-2.5-1.4-10.6-4.8-9.8q-2.3.7-3.4-1.5-1-2-2.3-2.1c-.7 0-2.3-1.3-3.5-3-2.1-2.7-2.6-2.9-6.8-2.3-4.4.6-4.5.6-3.9-2 1-3.8-17.9-18.5-20.7-16q-1.9 1.7-1.8.3-.1-1.1-2-.7-2 .5-2.5-1.4c-.6-1.7-.9-1.8-4-.5l-3.3 1.4-3.1-6.5-3.1-6.4-4.4.5-4.3.4-2.3-4.9c-2.4-5-4-5.9-6.2-3.5-2.6 2.8-8.8-4.3-8.8-10.2q0-2.3-3.4.1-5 3.6-8.6-4.4-3.5-7.5-5.8-3.4c-1.2 2.2-3.8.9-5.2-2.5-1.9-4.7-5.4-8.2-7.3-7.4q-1.5.6-1.7 1.3c0 .4-1.6.5-3.5.3q-3.9-.3-2.5-1.7c1.7-2-3-9.7-5.5-9.1-1.1.3-2.6.2-3.3-.3-.9-.6-1.2-62.5-1-301.2l.3-300.4 3.1.2c2.6.2 3.3-.3 4.7-3.3 1.9-3.9 2.2-6.4.7-6.4q-.9-.1-1-1.8c.1-1.6.1-1.6 1.1 0 .5 1 2.1 1.8 3.4 1.8q2.2 0 2.8-1.8.5-2.3.6 0c.1 1.4 3.9 3.7 4.4 2.6.2-.1 1.2-2.4 2.4-5 1.6-3.5 2.7-4.6 3.8-4.2q1.5.6 1 2.5c-.8 2.5-.6 2.5 7.6-1.9 6.3-3.3 7.4-4.3 9.8-9 2.1-4.3 3-5.2 4.5-4.8 3.1.8 8.5-3.1 9.4-6.7.8-3 1.2-3.2 6.3-3.7 3-.3 6.4-1.1 7.7-1.8s3-1.1 4-.8c1.3.4 2.3-.7 4.1-4.9 2-4.7 2.6-5.3 4.2-4.5q1.7 1 1.2 2.6c-.5 1.4-.3 1.4 1.6.2 1.7-1 2.1-2 1.9-4.5-.4-3.1 1.1-5 2.7-3.5 1.5 1.6 8.5.8 9-.9.9-2.8 4.5-6.9 6.1-6.9q1.6 0 .9 2.1-.8 2.2.4 1.5 1-.8 1.1-1.9c0-.7 1.3-1.2 2.9-1.3q3-.1 5.6-3.2c1.4-1.7 3.4-3.4 4.4-3.7s2.6-2.3 3.6-4.5c1.5-3.3 2-3.8 3.6-2.9 1 .5 1.8 1.5 1.6 2.1q0 1.2 1.6 1.6c1.5.3 1.8 0 1.2-1.7q-.7-2.1.7-1.6 1.4.3 3.8-4c2.9-5.2 8-9.7 5.4-4.7-2 3.8-.5 3.8 7.3 0 6.3-3 7-3.7 9.6-9.1 2-4.4 3.2-5.7 4.3-5.3l2 .6q.3.2-.2 1.7-.2 1.4 1.3-1.8 1.8-3.6 3.5-3.1 1.8.4 3.5-3.2c.9-2 1.9-3.6 2.2-3.6 1.6.1 3.3 1.9 2.7 2.9q-.6 1 .5 1.1 1.2 0 .4-3.6c-.5-3-.4-3.6.8-3.1q1.5.6 2.3-2.6l.8-3.2.3 3.7c.4 3.8 3.2 5.4 4.8 2.8.3-.6 1.5-1 2.6-1 1.5 0 2.7-1.5 4.5-5.4 2.6-5.7 4.9-6.6 5.7-2.3l.4 2.2.8-2.3q.8-2 1.7-2.2 1-.2.5-1.9c-.4-1.8-.2-1.8 2-.8 2.1.9 2.7.8 3.4-.6q1-1.7 3.3-1.1c1.9.4 2.5-.2 4.6-4.6 2.2-4.7 5.2-8 7.2-8 .5 0-.1 1.8-1.2 4s-1.8 4-1.5 4a22 22 0 0 0 8.5-5.1c.8-1 2.8-2 4.4-2.3s2.9-.6 3-.8l2-4.5c3-6.9 6.6-10.3 9.5-9 2.6 1.2 5.1-1 5.1-4.4q0-1.6 3-2.1c3.5-.5 3.5-.6 1.5 3.3l-1.6 3 7.8-4c7.2-3.6 8.1-4.3 10.3-9.1 1.3-2.8 2.9-5.4 3.6-5.8 1.6-1 2.8-5.2 1.4-5.2q-1-.1-.5-1c.3-.6 1.5-1 2.6-1 1.7 0 1.8.3.9 2.1-1.5 2.6-1.2 2.8 2.6 1.8a6 6 0 0 0 4.3-3.7c.9-2 3.2-3.8 8.7-6.5l7.4-3.7-2 4c-1.1 2.1-2 4.2-2 4.5s3.5-1.2 7.8-3.4c7.1-3.6 7.9-4.3 10.5-9.5q4.1-8.8 7-5.7 3.3 3.3 6.5-3.4c1.8-3.7 1.9-4.5.7-4.5q-1.4-.1-1.5-1.5 0-1.5 3.5-1.5c4 0 4 .1 1.9 4.1-.8 1.7-1.3 3.3-1.1 3.6a53 53 0 0 0 17.3-9.5c2.1-6.5 3.8-9.2 5.9-9.2q2.3 0 2.8-2.1t2.4-1.5q1.8.6 3.8-2.7c1.1-1.8 2.5-3.2 3-3.3s2.4-.6 4-1.3l6.2-2.7q3.2-1.2 3.8-.4c1.4 2.3 3.8.7 5.8-4q2.2-4.8 3.5-4.5c.7.3 2.5-.1 4-.8s3.5-1.2 4.5-.9 2-.4 2.3-1.2c.7-1.9 3.5-2.1 5.2-.4q1.3 1.4 1.2-.2c0-3.2 3.5-10 5.2-10 .9 0 1.9-.6 2.2-1.3.6-1.3-.4 3-1.2 5.1-.2.7 3-.4 7.1-2.4 7-3.5 7.9-4.3 10.8-9.7 3.4-6.5 5.1-7.7 7.4-5.3 2.6 2.6 4 1.9 6.4-3.1 1.8-3.7 2-4.8.9-5.4q-1.3-.9-.1-.9c.6 0 1.8.7 2.6 1.5 1.6 1.5 6.7 1.1 16.9-1.5 5.3-1.4 8.8-.8 11.4 1.7a10 10 0 0 0 5.5 1.9c2.1.1 4.4.6 5.1 1s2 .7 2.9.6c.9-.2 2.2 1.2 3.2 3.3 1.7 3.6 3.4 4.2 6.8 2.5 1.6-.9 1.9-.7 1.9 1q0 2 2 2 1.8 0 2 .9c0 4 16.1 14.1 20.1 12.6q1.4-.5 3.5 4.4c2 4.5 2.4 4.8 5.7 4.7 2-.1 3.9-.5 4.3-.8.9-1 9.1 4.8 10.9 7.8l3 4.9c1.3 2 1.9 2.3 3.4 1.6q1.7-1 6.3.4c8.2 2.4 11.9 5.4 13.8 11.2 1.2 3.3 4.2 3.8 7.6 1.2q1-.7 2 .1 1 .9 4.3-.3c3-1.1 3.4-1 5.3 1.3s1.8 2.5.3 3.6c-1.4 1.1-1.4 1.6.7 5.8l2.2 4.6 4.6-.4c4.6-.5 4.7-.4 6.1 3.2.7 2 1.3 4.2 1.3 4.9-.2 1.2 2.7 1 4.9-.4 3.7-2.3 14.2 4.1 17.1 10.5 1.6 3.6 2 3.8 5.9 3.6 5.7-.2 5.9-.3 5.2-1.4q-.4-1 1-1 1.8 0 1 2.1-.7 2 .3 1.5.9-.3 1.5 1.5.4 2.3 2.7 1.6c1.6-.4 2.5.3 4.1 3.6 1.9 3.7 2.3 3.9 3.4 2.4 1-1.5 1.4-1.5 2.4-.3.6.8 2.8 1.7 4.8 2.1q3.4.7 2.5 1.4c-2.6 1.6 2.3 9.6 6.7 11.1 2.1.7 4.4 1 4.9.6 1.6-1 10.2 1.6 10.2 3.1 0 1 2.7 7.7 3.7 9.2.2.3 1.7-.5 3.3-1.8 1.7-1.2 3-1.7 3-1.2q.1 1 1.4.5c.7-.3 3 1.1 5.1 3 2.1 2 4.2 3.6 4.7 3.6s1.8 2 3 4.4c1.9 3.9 2.5 4.4 5.5 4.4 1.8 0 4.1-.7 5-1.7 1.6-1.5 1.6-1.5 1 .2-.4 1.1.1 3.4 1.3 5.8 1.9 3.7 2.9 4.3 5.8 4q1 0 1.2.9c0 1.8 9.8 6 10.4 4.4.8-2.2 3.3-1.6 3.9.8 1.3 5.1 3 6.2 6.5 4.4 2.8-1.5 3.2-1.5 3.2-.1q0 1.5 3.2 1.5c2.9 0 3 .1 1.3 1.4-3.9 2.8 3.9 10.3 9.5 9.1 2.6-.6 3.1-.3 4 1.9 1 2.6 4.3 3.6 5.5 1.6q.8-.9 3.6 1.1c3 2.1 4.7 2.7 8.4 2.8q2.3 0 .6 1c-1.2.8-1.1 1.6.5 5.4l1.9 4.6 4.6-.6c4.1-.5 4.8-.3 5.3 1.5q2.4 7.2 9.1 7.2c3.5 0 4.5.4 5 2.1 1 2.9 6.9 8 12.1 10.2 4.3 1.9 4.5 1.9 5.8.2 1.8-2.5 5-1.3 4.1 1.6q-.7 2 1.7 5.5c2.1 3.2 2.7 3.5 6.5 3.2s4.6.2 6.7 3c4.5 6.2 11.2 10.5 16 10.5 4.3 0 4.5.2 6.7 4.8 2.3 5 3.9 5.6 9.1 3.4 2.5-1 9.7 4.4 12.9 9.7 2 3.2 3.1 4.2 4.8 4a8 8 0 0 1 4.4 1.3c1.2.8 3.2 1.5 4.4 1.5q2.1.1 2.3 1t2.3.5c2.4-.6 6 3.8 8.3 10.1 1 2.6 2 43.3 1.8 71.4-.5 62.8-.3 106.4.4 106.9a39 39 0 0 1 3.2 12.6q-.2 1.4-2 1.5c-2 0-2 .7-2 54.2-.2 129.8-.3 122.8 2.5 130.2 3.1 8.1 3.1 9 .6 7.6-1.1-.5-2.3-1-2.6-1s-.4 6.6-.1 14.7l.8 18.3a13 13 0 0 1-.6 5.2q-.8 1.6 1.2 2.2c4.8 1.6 4.9 16.1.1 18.6-1.7.9-1.9 2.2-1.9 10.5 0 5.1.4 9.5.9 9.7s1.4 8 2 17.5c1.5 22.9 1.5 22.3-.9 22.3-1.8 0-2 .7-2 6.4v6.4l9 6.7c4.9 3.7 9.4 6.4 9.9 6.1 1.3-.8 6.1 1.1 6.1 2.4a32 32 0 0 0 4 6.9c3.9 5.8 4 5.9 8.3 5.6l4.5-.3 4.7 7.5c3.6 5.7 5.1 7.3 6.4 6.7q6.3-2.5 8.5 1.7c3.1 6.2 12.6 16.7 14.6 16.2q1.8-.6 2-1.3c0-2.4 5.2 2.2 7.1 6.2q2.2 4.4 3.4 4.1t2 .6q.6 1.2 2.8-.4 3.9-2.9 3.7.1c0 1.2 5.7 9.5 12.6 18.3q.5.3 1.7-.8c3.7-3 10.7 2.5 10.7 8.5 0 1.6 0 1.6 9.4 0 .7-.1 9.7 12.2 13.2 18q1 2 2.5.8c3.6-2.8 6.7-1 11.5 6.4s5 7.7 7.3 6.3c1.2-.8 1.2-1.3-.3-3.5-2.1-3.3-1.4-3.3 4 .1 2.5 1.7 4.1 3.4 3.9 4.1-.9 2.6 3.4 6.9 9 9.2 3 1.2 5.5 2.7 5.5 3.2q0 .8.9.3 1-.3 2.2 1.7c.6 1.3 2.7 4.6 4.6 7.4l3.5 5.2 4.9-.4c2.8-.2 4.9.1 4.9.7 0 2.7 8.6 13.7 10.1 12.9q6.8-3.9 14.3 10.2c1.8 3.3 2.2 3.5 6.3 3.2s4.4-.2 4.1 1.9c-.2 1.8 1.4 3.3 9 8.4 9.5 6.5 11.2 7.2 11.2 5l.1-120.4v-119.2l-4.2-6.2c-2.5-3.8-3.5-6-2.5-5.6l3.2 1.4q1.8.8 1.1-1.3a25 25 0 0 1 .2-16.6c2.1-7.5 2.1-8.5 2.1-132.4a11880 11880 0 0 0-.9-162.4c.8-34.6 1.2-136.7 1-241.2-.1-49.7-.1-50.7-2.1-51.3-1.1-.3-2-1.4-2-2.4 0-2.3-2.5-4.5-4.1-3.5-.7.4-1.8-.1-2.5-1-1.2-1.7-1.4-1.7-4.2-.1-3.1 1.9-12.2 1.4-12.2-.6q.1-.8 1-.9c1.3 0 1.3-2.3-.2-5.5-1-2.1-1.6-2.5-3.9-2-2 .5-3.3.1-4.8-1.4-1.2-1.2-2.6-2.1-3.2-2.1-2.4 0-9-5.7-10.7-9.2-1.8-4-1.1-3.8-10.5-2.4q-2.5.4-2.1-.5c.7-1.2-2.8-9.9-4-9.9-.5 0-2.4 1.2-4.3 2.6l-3.4 2.6.3-2.8c.2-2.2-.2-2.9-1.7-3.2a9 9 0 0 1-3.8-2c-2.8-2.5-4.7.1-2.1 2.9l1.9 2.1-3.8-1.8c-3.8-1.8-3.8-1.8-1.7-3.4s2.1-1.6.2-4a13 13 0 0 1-2.3-4.5c-.4-2-4.3-2.6-8-1.1-1.1.5-2.1-.6-3.9-4.3l-2.3-5-4.8.4c-5.2.4-5.4.3-4-2.4.8-1.4-.2-2.5-5.5-6.1-3.6-2.4-7-5-7.6-5.7-.9-1.1-1.4-1.1-2.7.1-2.1 1.9-6.8 1-7.4-1.5a3 3 0 0 0-2.5-1.9q-1.9 0-3.2-3c-.7-1.7-1.6-3-2.1-3s-2.8-1.2-5.1-2.6c-3.6-2.3-4.4-2.4-6.4-1.3-1.3.7-2.5 1-2.7.8l-2.3-4.8c-1.8-4-2.3-4.3-6.3-4.6q-4.3-.4-4.8 1.1-.6 1.3-1.9 1.4-2.7-.1.1-2.4c1.4-1 1.3-1.6-.7-5.4-1.3-2.3-2.8-4-3.4-3.8s-2.6-.4-4.3-1.5c-3.8-2.3-4.1-2.3-4.1-.4 0 2.2-1.7 1.8-3-.6-.9-1.6-1.7-1.9-4.2-1.4q-3.2.8-2.3-.4c.3-.7-.1-3.1-1.1-5.5-1.9-4.5-3-4.9-10.8-3.7-.4 0-.5 1.3-.2 2.8.5 2.2 0 1.8-2.4-2q-3-4.6-5-4.7t-3.5-3.1-3.1-2.5q-1.3.4-.9-.4.3-1-1.9-1c-1.4 0-3.1-.8-3.8-1.9a8 8 0 0 0-3.3-2.5c-2.9-.9-11.5-9.3-11.5-11.1s-.5-1.9-3.1-.5q-2 1.3-2.5-.5c-.3-.8-1.4-1.5-2.4-1.5s-2.8-1.6-4-3.5c-2.1-3.5-4.3-4.4-5.5-2.5-1 1.6-4.5 1.2-3.9-.4q.5-1.4-2.2-2c-3.8-1-11.3-7.4-12-10.2-.3-1.3-1.2-2.4-1.9-2.4-2.6 0-11.5-5.3-12.1-7.2q-.5-2-2.5-1.3c-1.1.4-3.1-.2-4.9-1.5-1.6-1.2-3.4-1.8-4-1.5q-.9.5-1-.4t-3.2-.4c-2.9.6-3.1.5-2.5-1.8 1.2-4.5-13.6-15.2-16.7-12.1q-1.6 1.6-1.6.4t-2.5-.6c-1.4.3-2.5.2-2.5-.4 0-.5-.9-3.1-2.1-5.6-2-4.7-2.1-4.7-4.5-3.2-2.3 1.6-2.5 1.5-6.4-2.4-3.7-3.7-4.2-3.9-5.6-2.5-2.4 2.4-3.2 1.9-5.5-3.6-1.9-4.4-2.5-5-4.6-4.4q-2.3.7-3-1.1-.5-1.6-3.4-1c-2.2.4-2.9.1-3.4-1.5s-1.2-1.9-3.4-1.4c-2.4.5-2.8.2-4.6-4.5-1.9-4.9-2.1-5.1-5.1-4.5-3.2.5-9.7-1.5-10.9-3.6q-.8-.8-2.2-.5-1.3.4-.9-.3c.3-.5-.8-2.3-2.4-4.1-1.7-1.8-3-3.6-3-4 0-.5-2.2-.7-4.8-.5-4.7.3-4.9.2-6.1-3.1-.7-1.9-1.6-3.4-2.1-3.4q-.6-.1-.4-1.8c.5-1.9-13.8-8.2-14.4-6.4-.5 1.6-6.6-1.1-10.6-4.6-2-1.7-4.1-3.2-4.7-3.2-4 0-11.6-5.2-13.7-9.5-1.8-3.8-2.6-4.5-5-4.5-6.7 0-16-6-18.3-11.8-.7-1.8-1.3-2.1-2.6-1.4-1 .5-3.5 1-5.6 1-3.7.1-3.7.1-2.1-2.3 1.5-2.3 1.4-2.5-2.3-4.9l-8.7-6.1c-4.9-3.6-10.1-4.6-12.3-2.4q-1 1.1-2.3-2c-1.1-2.9-1.4-3-3.3-1.6-2 1.4-2.2 1.2-4.3-3.8-2-4.5-2.6-5.2-4.9-5-2.2.2-2.6-.1-2.2-1.7.6-2.4.3-2.5-2.8-.4-2.4 1.6-2.5 1.5-2.5-.4 0-2.5-1.6-3.7-3.3-2.5q-4 3.3-7-4.4c-2.2-5.3-3.6-6.3-8.9-6.3-1.5 0-3-.5-3.3-1s-2.3-.7-4.4-.4c-3.6.6-3.8.4-5.5-3.5-1.1-2.2-2.3-3.8-2.7-3.5s-1.1-.7-1.5-2.1c-.6-2.3-3.4-3.6-3.4-1.6 0 3.4-13.9-6-16.6-11.1-1.9-3.6-7.3-4.7-11-2.3-2.4 1.5-2.8 1.5-6.9-.1-3.5-1.5-4-2-2.8-2.9 1.4-1 1.4-1.5-.1-4.3-.9-1.7-1.6-3.8-1.6-4.7 0-1.8-.1-1.8-3.4-.5-2.1.8-3 .4-5.6-2-2.5-2.3-3.7-2.8-6.3-2.3-3.1.5-3.4.2-5.6-4.5-2.3-4.8-2.5-5-5.7-4.5-2.3.4-4.7-.2-8.1-1.8a28 28 0 0 0-5.8-2.4c-1-.1-1-.6-.3-3.3.5-2.1-14.3-12.2-16.4-11.1-2.6 1.4-3.4 1.1-4.7-1.8q-1.2-2.6-2-1.5-.6 1-2.5-2.3c-1.7-3.1-2.1-3.3-6-2.9-2.2.3-4.3.7-4.5 1q-.4.1-1.6-1.2c-1.1-1.5-1.4-1.5-4 .2l-2.8 1.8 1.2-2.3q2-4-3.2-5.7a15 15 0 0 1-4.9-3.2c-1.6-1.4-2.8-2.2-2.8-1.6 0 .5-1.2-1-2.6-3.4-2.1-3.6-2.8-4.1-4.4-3.2q-1.9 1-4.5-.2c-2.2-1-2.9-.8-5.3 1.4-2.2 2.1-3.1 2.4-5 1.5a5 5 0 0 0-4.7.1c-2.3 1.1-2.4 1-1.4-1.5.5-1.4.7-2.8.4-3.1q-.5-.4-.5.5"/><path d="M1099.2 1223.8c-80.1.2-96.6.4-97.7 1.6-.8.7-3.5 1.7-6.1 2.1-2.6.3-5.3.9-6 1.2q-1.5.6-1.4-2.1v-2.6h-89l3.9 7.9 4 7.9 5.1-.4q4.8-.2 5 .7.2 1 2.6.6c2.3-.4 2.5-.2 2.1 2.2-.4 1.9.5 4.2 3.6 8.8 4.3 6.4 6 7.5 7.5 4.7s5.4.2 10 7.6c2.3 3.7 4.2 7.3 4.2 7.9q0 2.4 3.6-.7c2.2-2.1 6.6-1.5 7 1a52 52 0 0 0 9.3 13.8q.8 0 1.4-.6c.4-.4 2-.8 3.7-.9 2.7-.2 3.4.4 7.6 7.1 4.1 6.4 4.9 7.2 6.6 6.3q2-1 1.2-3.1-.5-2 .7-2.9c2.2-1.4 2.4-1.2 3.8 3.6 1 3.5 4.6 9.5 9.7 16.3.9 1.2 4.5-1.2 3.9-2.6-.5-1.4-.4-1.4 1.3.1 1 .9 2.4 1.7 3 1.7s4.1 4.3 7.8 9.5c5.4 7.8 7 9.5 8.5 9q2-.8 4 1.8c1 1.4 3.4 3.1 5.3 3.7 2.4.8 3.8 2.1 5.1 5q1.8 3.8 2.9 3.3c3.3-2.1 7.1-.8 8.8 3 2 4.5 4.4 7.1 5.7 6.2.5-.3 1.3 0 1.6.5q.7 1.2 2.6-.6 1.8-1.5 2.2-1.3c2.5 3 11.7 16 12.6 17.8 1.2 2.1 1.4 2.1 3.6.7q2.3-1.4 3-.6.6.8 2 .4 1.5-.5 2.2 1.2a56 56 0 0 0 9.2 13.4c1.9 0 3.1-2.6 1.8-4q-.7-1 2.1.9c1.7 1.2 3.2 1.9 3.2 1.4.1-1.3 9 12.9 9 14.2 0 1.9 5.1 2.5 6.7.9s3.3-1.8 3.3-.3c0 3 4.2 6.9 7.4 6.9 2.4 0 3.8.7 5.5 3.1q2.1 2.8 3.7 2.5 1.3-.4 1.4.7c0 .7 2.1 4.3 4.6 8 3.7 5.6 4.8 6.6 6 5.6q1.4-1.2 2.7 0t2.6-.2c1.4-1.4 1.9-.8 10.4 11.3 5.3 7.7 7 8.6 12.1 6.7 1.2-.5 2.1.6 3.7 4.3l2.1 4.9 4.9-.4c4.5-.3 4.9-.2 6.9 2.9 1.1 1.8 6 6.9 11 11.2 12.7 11.2 14.8 12.7 17 12.1q1.8-.4 2 .5t1.9.3c1.4-.4 3.2 1.4 8.6 9 7.1 10 7.5 10.4 9.8 8 1.6-1.5 6.7-.1 6.7 1.9 0 2.2 8.4 13.7 9.6 13.2q1.3-.4 1.9.4.8.9 2.9-.5c2.2-1.5 2.4-1.3 5.8 3.7 2 2.9 4.1 6.3 4.7 7.4.8 1.8 1.8 2.1 5.4 1.8 5.1-.4 6.3.7 13.6 11.8 4.3 6.8 6.3 8.1 7.8 5.3.9-1.6 6.3 0 6.3 1.9 0 .4 1.6 3.4 3.5 6.5 5.5 8.9 5.2 8.6 6.7 7.4 2.1-1.6 7.8-2.4 7.8-1.1 0 1.6 8 13.8 9 13.8q1-.2 2.3-1.5c1.6-1.5 6.7-.1 6.7 1.9 0 .6 6.8 11.3 8.6 13.4.6.8 4.4-2 3.9-2.8q-.3-.7 2 .4c1.4.7 4.6 4.6 7.1 8.5s4.9 7.1 5.2 7.1c1.7-.1 3.4-1.9 2.8-2.9-1.1-1.7 1-1.3 2.4.4.7.8 1.8 1.5 2.4 1.5 1.1.1 6.9 8 8.2 11.3 1.1 2.9 5 3.9 8.4 2.2 3.7-1.9 4.4-1.9 3.6.1-.9 2.5 3.4 8.6 5.7 8q2-.6 1.2 1.5-.6 1.9 2.5 5.7c3 3.8 3.3 3.9 7.3 3.1s5.2-.5 5.2 1c0 2.4 8.2 13.1 10.1 13.1 1.1 0 2.9.9 3.8 1.9 1 1.1 2.3 1.8 2.9 1.5 1.7-.6 2.9.5 6.6 5.9 2.7 3.9 3.5 4.6 4.7 3.6 1.1-.9 1.7-.9 2.8 0q1.4 1.3 2.1.1c.8-1.3 2.5-1.3 2.5 0 0 2.6 9.2 14.8 10.9 14.3q1.7-.5 3.4 3.3c1 2 2.1 3.4 2.4 3.1.3-.4-.2-1.8-1.1-3.2-1.7-2.6-1.4-4.5.7-4.5 1.1 0 2.9 2.6 8 11.4 2.6 4.6 7.1 6 8.2 2.7.7-2.3 3-1.8 3.9.7.3.9 2.3 4.5 4.4 7.8 3.5 5.6 4 6 5.7 4.8q1.8-1.3 3-.4 1 1 2.3-.2c1.2-1.2 7.9 3.7 7.4 5.6-.4 1.3 2.9 8.6 3.9 8.6q4.2-.2 2.8-3.3c-2.6-4.8 5.2 3 11.8 11.9 8 10.6 7.3 10 9.6 8.8 1.6-.9 1.5-1.4-1.8-5.7-2-2.6-3.2-4.7-2.7-4.7 1.3 0 4.7 4 6.6 7.7q1.7 3 2.9 2.7 1.4-.3 3.9 5c1.4 3.1 2.7 5.4 3 5.1s2.3-.7 4.6-.9l4.1-.4 6.2 9.1 6.9 10c.3.4 1.7-.3 3-1.5q2.4-2.2 2.8-1 .5 1.1 2.3 1.2 1.7.2 1.9 1.5-.1 2.2 5.8 10.2c2 2.7 2.8 3.1 4.2 2.3q2-1 2.5 0 .7 1 2.4.1c1.4-.8 2.5.3 6.5 6.4l4.8 7.3 4.9-.4c4.1-.3 4.9-.1 4.9 1.4 0 .9 2.7 5.1 6 9.2 5.9 7.4 6.1 7.5 10.6 7.5h4.6l2.2 5.3q2.1 5.5 3.6 4.6c6.4-2.7 8-1.7 17 11.2 4 5.7 4.3 5.9 8.5 5.9s4.6.2 6.7 4.5c1.4 2.6 3 4.5 4 4.5s2 .3 2.4.7 1.6.3 2.6-.3c1.1-.6 2.4-.7 2.8-.2 2.7 2.9 9.9 12.3 11.4 14.9 1.7 2.8 2.3 3.1 6.1 2.9l4.2-.3 4.9 7.3c5.2 7.8 7.3 9.1 11.1 6.7 2-1.3 2.4-1.2 3 .4.3 1.1 2.3 4.4 4.4 7.5 3.4 5 4.2 5.6 6.9 5.4 1.7-.1 3.3-.5 3.7-.9 1.4-1.4 2.4-.4 2.1 2.1s.3 3.1 5.1 5.7c6.6 3.5 6.7 3.5 7.6-10 .5-8 1-10.4 2.1-10.4 1.9 0 2.1-257.4.3-259.7-.6-.7-2.2-1.3-3.5-1.3-2.8 0-4-1.6-1.8-2.4 2.9-1.1.4-2.5-3.8-2.1-5.1.5-6.3 1.6-4.9 4.3 1.3 2.5 1.4 3.2.2 3.2-1.3 0-3.1-5.7-2.4-7.5.3-.9-1.4-4.4-3.7-8-3.7-5.6-4.4-6.3-6-5.3q-1.6 1.2-1.3 2.1.4.8-.8.3l-3.1-1.2c-.9-.3-2.7-3-4-6-1.3-3.1-2.8-5.2-3.5-4.9-.6.2-1.4-.1-1.6-.8q-.3-1.4-1.7 0c-1.8 1.7-9.4-4-11.6-8.8-1.9-4.3-1.8-4.3-4.3-2.9-1.4.7-2.6.1-5.6-3-2.2-2.2-4.5-4-5.2-4q-1.2-.1-1.3-1.4c0-.8-.8-2.1-1.8-2.8a27 27 0 0 1-4.1-4.5c-1.9-2.8-2.5-3.1-4.2-2.2-1.6.8-1.8 1.3-.8 2.5q1 1.4.7 2c-.3.3-1.2-.8-1.9-2.5-1.1-2.4-1.7-2.8-3.1-2-1 .5-1.9.7-1.9.4l-.3-1.3c-.4-1.5-4.6-8.8-6.4-10.9s-7.2-2.6-9.9-1q-1 .5-1.7-1.6c-1.1-4.7-8.6-13.8-10.4-12.8-2 1.1-7.2 1-7.2-.2 0-.4-1.9-3.6-4.2-7.1l-4.3-6.4-4.5.3-4.5.3-4.9-7.6-4.8-7.6-2 2.4c-1.9 2.3-2.1 2.4-3.3.6q-1.3-1.6-2.4-1.1t-1.1-.6c0-.7-1.9-4.1-4.2-7.5-4.4-6.5-7.3-8.1-11-6-.9.6-1.9.8-2 .6l-4.9-7.5c-4.7-7.2-7.6-8.7-11.7-6.1-1.9 1.2-2.8-.2-1.5-2.3.9-1.5-.1-2.8-7.1-9.2-4.4-4.1-9.9-8.8-12.1-10.4s-5-4-6.2-5.4c-1.9-2.1-2.4-2.3-3.8-1.1-3.3 2.7-6.5 1.9-8.6-2.2-1.1-2.1-1.7-4.3-1.4-4.7.2-.5-.8-1.7-2.3-2.7-1.5-.9-5-3.6-7.7-6-4.9-4.1-5.1-4.2-7.8-2.7q-5 2.5-2.8-1.5c1.7-3.1 1.4-3.6-3.1-8.1-3.9-3.7-4.4-3.9-6.4-2.6q-2.1 1.5-3.2.3-1-1.2-2.6.2c-1.3 1-1.7.8-2.5-1.3-.6-1.4-2.7-5.1-4.7-8.1-3.1-4.8-3.8-5.3-5.4-4.3q-1.7 1-1.4 1.8.1.8-2.1 2.3l-2.4 1.6 2.1-3.6 2.1-3.7-2.3 1.3c-1.9 1-2.5 1-2.8 0a85 85 0 0 0-4.6-7.4c-4.5-6.5-5.9-7-13.5-5.2q-2.7.6-1.4-.5c.9-.9-.1-3-3.4-8-4-6-4.7-6.6-6.3-5.6q-1.6 1.1-1.3 2.2.5.8-1.3-.6c-1-.9-2.4-1.5-3-1.2-1.5.5-5.8-6.3-4.9-7.7 1.1-1.7-4.7-6-6.7-4.9-1.5.8-1.8.6-1.8-1.4 0-3.2-14.6-15.3-16.5-13.7q-1.3 1.2-2 0-.6-1-2.5 0l-2.3 1c-1 0-8.7-12.8-8.7-14.4q0-1.7-1.3-1.3c-.8.3-2 .2-2.7-.3q-1.2-.7-3.2 1.2c-1.9 1.9-2 1.9-5.8-3.5-3.2-4.4-4.7-5.6-7.6-6.1s-3.9-1.4-4.7-3.7c-1.1-2.8-2.2-3.4-5.9-3.1q-1.6 0-1.8-1.2c0-.8-1.9-4.4-4.1-8-4.3-6.7-5.6-7.3-11.1-5.1q-1.6.9-3.4-2.7c-3.9-7.7-7.5-11.7-9.8-10.9-1.1.5-2.1 1.7-2.1 2.7 0 1.4-.8 2-3.3 2.2-3.3.3-3.3.3-2.7-3.1.6-3 .1-4.4-3.3-9.5-3.9-5.6-4.2-5.9-7.9-5.6-5.4.3-5.3.3-5.3 1.9q0 1.3-.9 1.5c-1.5 0-2.3-1.8-1.1-2.5 1.8-1.1 1.1-3-3.1-9.4-3.5-5.1-4.5-6-6.3-5.5-4.5 1.5-6.4 1.2-7.4-1.1-.6-1.3-2.7-4.6-4.6-7.3-3.5-4.8-3.8-5-8.1-4.7-4 .3-4.7 0-6.6-2.6-1.1-1.6-1.9-3.6-1.6-4.3s-1.1-2.9-3.1-4.9l-3.7-3.5-37-.3c-20.3-.2-80.3-.3-133.3-.1"/></g></svg>