<svg xmlns="http://www.w3.org/2000/svg" viewBox="0 0 48 48" fill="none" aria-label="Quiver">
  <defs>
    <linearGradient id="quiver-grad" x1="0" y1="0" x2="48" y2="48" gradientUnits="userSpaceOnUse">
      <stop offset="0%" stop-color="#7C3AED"/>
      <stop offset="100%" stop-color="#4F46E5"/>
    </linearGradient>
  </defs>
  <path d="M 24 1.5 C 8 1.5 1.5 8 1.5 24 C 1.5 40 8 46.5 24 46.5 C 40 46.5 46.5 40 46.5 24 C 46.5 8 40 1.5 24 1.5 Z" fill="url(#quiver-grad)"/>
  <path d="M 24 8 C 14 8 8 14 8 24 C 8 34 14 40 24 40 C 34 40 40 34 40 24 C 40 14 34 8 24 8 Z" stroke="white" stroke-width="3.8" fill="none"/>
  <path d="M 28 36 L 40 36 L 40 24 Z" fill="white"/>
</svg>
